<svg xmlns="http://www.w3.org/2000/svg" version="1.1" xmlns:xlink="http://www.w3.org/1999/xlink" xmlns:svgjs="http://svgjs.com/svgjs" width="2880" height="1120" preserveAspectRatio="none" viewBox="0 0 2880 1120"><g mask="url(&quot;#SvgjsMask1042&quot;)" fill="none"><rect width="2880" height="1120" x="0" y="0" fill="rgba(17, 166, 224, 1)"></rect><g mask="url(&quot;#SvgjsMask1043&quot;)"><path d="M362.5 562.5L387.5 537.5L412.5 537.5L437.5 537.5M237.5 562.5L262.5 537.5L287.5 537.5L312.5 537.5L337.5 537.5L362.5 537.5M487.5 562.5L512.5 537.5L537.5 537.5L562.5 537.5L587.5 537.5L612.5 537.5M837.5 537.5L862.5 512.5L887.5 512.5M762.5 562.5L787.5 537.5L812.5 537.5L837.5 512.5L862.5 487.5L887.5 487.5L912.5 487.5L937.5 487.5L962.5 487.5L987.5 512.5L1012.5 512.5L1037.5 512.5L1062.5 512.5M737.5 562.5L762.5 537.5L787.5 512.5L812.5 512.5M637.5 562.5L662.5 537.5L687.5 537.5M187.5 562.5L212.5 537.5L237.5 537.5M937.5 562.5L962.5 587.5L987.5 612.5L1012.5 612.5L1037.5 612.5M437.5 562.5L462.5 587.5L487.5 587.5L512.5 587.5M-12.5 562.5L12.5 562.5L37.5 562.5L62.5 562.5L87.5 562.5L112.5 562.5L137.5 562.5L162.5 562.5L187.5 562.5L212.5 562.5L237.5 562.5L262.5 562.5L287.5 562.5L312.5 562.5L337.5 562.5L362.5 562.5L387.5 562.5L412.5 562.5L437.5 562.5L462.5 562.5L487.5 562.5L512.5 562.5L537.5 562.5L562.5 562.5L587.5 562.5L612.5 562.5L637.5 562.5L662.5 562.5L687.5 562.5L712.5 562.5L737.5 562.5L762.5 562.5L787.5 562.5L812.5 562.5L837.5 537.5L862.5 537.5L887.5 562.5L912.5 562.5L937.5 562.5L962.5 562.5L987.5 562.5L1012.5 562.5L1037.5 562.5" stroke="rgba(255, 255, 255, 1)" stroke-width="4.17"></path><path d="M1031.25 562.5 a6.25 6.25 0 1 0 12.5 0 a6.25 6.25 0 1 0 -12.5 0zM431.25 537.5 a6.25 6.25 0 1 0 12.5 0 a6.25 6.25 0 1 0 -12.5 0zM356.25 537.5 a6.25 6.25 0 1 0 12.5 0 a6.25 6.25 0 1 0 -12.5 0zM606.25 537.5 a6.25 6.25 0 1 0 12.5 0 a6.25 6.25 0 1 0 -12.5 0zM881.25 512.5 a6.25 6.25 0 1 0 12.5 0 a6.25 6.25 0 1 0 -12.5 0zM1056.25 512.5 a6.25 6.25 0 1 0 12.5 0 a6.25 6.25 0 1 0 -12.5 0zM806.25 512.5 a6.25 6.25 0 1 0 12.5 0 a6.25 6.25 0 1 0 -12.5 0zM681.25 537.5 a6.25 6.25 0 1 0 12.5 0 a6.25 6.25 0 1 0 -12.5 0zM231.25 537.5 a6.25 6.25 0 1 0 12.5 0 a6.25 6.25 0 1 0 -12.5 0zM1031.25 612.5 a6.25 6.25 0 1 0 12.5 0 a6.25 6.25 0 1 0 -12.5 0zM506.25 587.5 a6.25 6.25 0 1 0 12.5 0 a6.25 6.25 0 1 0 -12.5 0z" fill="rgba(255, 255, 255, 1)"></path><path d="M387.5 512.5L412.5 487.5L437.5 487.5L462.5 487.5L487.5 487.5L512.5 462.5M362.5 512.5L387.5 487.5L412.5 462.5M237.5 512.5L262.5 487.5M162.5 537.5L187.5 537.5M462.5 512.5L487.5 537.5M-12.5 537.5L12.5 537.5L37.5 537.5L62.5 537.5L87.5 537.5L112.5 537.5L137.5 537.5L162.5 537.5L187.5 512.5L212.5 512.5L237.5 512.5L262.5 512.5L287.5 512.5L312.5 512.5L337.5 512.5L362.5 512.5L387.5 512.5L412.5 512.5L437.5 512.5L462.5 512.5L487.5 512.5L512.5 512.5L537.5 512.5" stroke="rgba(247, 154, 42, 1)" stroke-width="4.17"></path><path d="M531.25 512.5 a6.25 6.25 0 1 0 12.5 0 a6.25 6.25 0 1 0 -12.5 0zM506.25 462.5 a6.25 6.25 0 1 0 12.5 0 a6.25 6.25 0 1 0 -12.5 0zM406.25 462.5 a6.25 6.25 0 1 0 12.5 0 a6.25 6.25 0 1 0 -12.5 0zM256.25 487.5 a6.25 6.25 0 1 0 12.5 0 a6.25 6.25 0 1 0 -12.5 0zM181.25 537.5 a6.25 6.25 0 1 0 12.5 0 a6.25 6.25 0 1 0 -12.5 0zM481.25 537.5 a6.25 6.25 0 1 0 12.5 0 a6.25 6.25 0 1 0 -12.5 0z" fill="rgba(247, 154, 42, 1)"></path><path d="M-12.5 587.5L12.5 587.5L37.5 587.5L62.5 587.5L87.5 587.5L112.5 587.5" stroke="rgba(247, 154, 42, 1)" stroke-width="4.17"></path><path d="M106.25 587.5 a6.25 6.25 0 1 0 12.5 0 a6.25 6.25 0 1 0 -12.5 0z" fill="rgba(247, 154, 42, 1)"></path><path d="M287.5 487.5L312.5 462.5M312.5 487.5L337.5 487.5L362.5 487.5M337.5 462.5L362.5 437.5L387.5 437.5L412.5 437.5M212.5 487.5L237.5 487.5M-12.5 512.5L12.5 512.5L37.5 512.5L62.5 512.5L87.5 512.5L112.5 512.5L137.5 512.5L162.5 512.5L187.5 487.5L212.5 487.5L237.5 462.5L262.5 462.5L287.5 487.5L312.5 487.5L337.5 462.5L362.5 462.5" stroke="rgba(247, 154, 42, 1)" stroke-width="4.17"></path><path d="M356.25 462.5 a6.25 6.25 0 1 0 12.5 0 a6.25 6.25 0 1 0 -12.5 0zM306.25 462.5 a6.25 6.25 0 1 0 12.5 0 a6.25 6.25 0 1 0 -12.5 0zM356.25 487.5 a6.25 6.25 0 1 0 12.5 0 a6.25 6.25 0 1 0 -12.5 0zM406.25 437.5 a6.25 6.25 0 1 0 12.5 0 a6.25 6.25 0 1 0 -12.5 0zM231.25 487.5 a6.25 6.25 0 1 0 12.5 0 a6.25 6.25 0 1 0 -12.5 0z" fill="rgba(247, 154, 42, 1)"></path><path d="M212.5 587.5L237.5 612.5L262.5 612.5M162.5 587.5L187.5 612.5L212.5 612.5M137.5 612.5L162.5 612.5M-12.5 612.5L12.5 612.5L37.5 612.5L62.5 612.5L87.5 612.5L112.5 612.5L137.5 612.5L162.5 587.5L187.5 587.5L212.5 587.5L237.5 587.5L262.5 587.5L287.5 587.5L312.5 587.5L337.5 587.5L362.5 587.5L387.5 587.5L412.5 587.5" stroke="rgba(255, 255, 255, 1)" stroke-width="4.17"></path><path d="M406.25 587.5 a6.25 6.25 0 1 0 12.5 0 a6.25 6.25 0 1 0 -12.5 0zM256.25 612.5 a6.25 6.25 0 1 0 12.5 0 a6.25 6.25 0 1 0 -12.5 0zM206.25 612.5 a6.25 6.25 0 1 0 12.5 0 a6.25 6.25 0 1 0 -12.5 0zM156.25 612.5 a6.25 6.25 0 1 0 12.5 0 a6.25 6.25 0 1 0 -12.5 0z" fill="rgba(255, 255, 255, 1)"></path><path d="M312.5 437.5L337.5 437.5M262.5 437.5L287.5 412.5L312.5 412.5M462.5 412.5L487.5 437.5L512.5 437.5L537.5 437.5L562.5 437.5M437.5 412.5L462.5 437.5L487.5 462.5M-12.5 487.5L12.5 487.5L37.5 487.5L62.5 487.5L87.5 487.5L112.5 487.5L137.5 487.5L162.5 487.5L187.5 462.5L212.5 462.5L237.5 437.5L262.5 437.5L287.5 437.5L312.5 437.5L337.5 412.5L362.5 412.5L387.5 412.5L412.5 412.5L437.5 412.5L462.5 412.5L487.5 412.5" stroke="rgba(247, 154, 42, 1)" stroke-width="4.17"></path><path d="M481.25 412.5 a6.25 6.25 0 1 0 12.5 0 a6.25 6.25 0 1 0 -12.5 0zM331.25 437.5 a6.25 6.25 0 1 0 12.5 0 a6.25 6.25 0 1 0 -12.5 0zM306.25 412.5 a6.25 6.25 0 1 0 12.5 0 a6.25 6.25 0 1 0 -12.5 0zM556.25 437.5 a6.25 6.25 0 1 0 12.5 0 a6.25 6.25 0 1 0 -12.5 0zM481.25 462.5 a6.25 6.25 0 1 0 12.5 0 a6.25 6.25 0 1 0 -12.5 0z" fill="rgba(247, 154, 42, 1)"></path><path d="M362.5 612.5L387.5 637.5L412.5 637.5L437.5 637.5L462.5 662.5L487.5 662.5L512.5 662.5L537.5 662.5L562.5 662.5M237.5 637.5L262.5 662.5L287.5 662.5M562.5 612.5L587.5 612.5L612.5 612.5L637.5 612.5L662.5 612.5M712.5 587.5L737.5 612.5L762.5 612.5L787.5 612.5M212.5 637.5L237.5 662.5M687.5 587.5L712.5 612.5L737.5 637.5L762.5 637.5L787.5 637.5L812.5 637.5L837.5 637.5M187.5 637.5L212.5 662.5L237.5 687.5L262.5 687.5M262.5 637.5L287.5 637.5L312.5 637.5L337.5 637.5L362.5 637.5L387.5 662.5L412.5 687.5L437.5 687.5L462.5 687.5L487.5 687.5L512.5 687.5L537.5 687.5L562.5 712.5M-12.5 637.5L12.5 637.5L37.5 637.5L62.5 637.5L87.5 637.5L112.5 637.5L137.5 637.5L162.5 637.5L187.5 637.5L212.5 637.5L237.5 637.5L262.5 637.5L287.5 612.5L312.5 612.5L337.5 612.5L362.5 612.5L387.5 612.5L412.5 612.5L437.5 612.5L462.5 612.5L487.5 612.5L512.5 612.5L537.5 612.5L562.5 612.5L587.5 587.5L612.5 587.5L637.5 587.5L662.5 587.5L687.5 587.5L712.5 587.5L737.5 587.5L762.5 587.5L787.5 587.5L812.5 587.5" stroke="rgba(255, 255, 255, 1)" stroke-width="4.17"></path><path d="M806.25 587.5 a6.25 6.25 0 1 0 12.5 0 a6.25 6.25 0 1 0 -12.5 0zM556.25 662.5 a6.25 6.25 0 1 0 12.5 0 a6.25 6.25 0 1 0 -12.5 0zM281.25 662.5 a6.25 6.25 0 1 0 12.5 0 a6.25 6.25 0 1 0 -12.5 0zM656.25 612.5 a6.25 6.25 0 1 0 12.5 0 a6.25 6.25 0 1 0 -12.5 0zM781.25 612.5 a6.25 6.25 0 1 0 12.5 0 a6.25 6.25 0 1 0 -12.5 0zM231.25 662.5 a6.25 6.25 0 1 0 12.5 0 a6.25 6.25 0 1 0 -12.5 0zM831.25 637.5 a6.25 6.25 0 1 0 12.5 0 a6.25 6.25 0 1 0 -12.5 0zM256.25 687.5 a6.25 6.25 0 1 0 12.5 0 a6.25 6.25 0 1 0 -12.5 0zM556.25 712.5 a6.25 6.25 0 1 0 12.5 0 a6.25 6.25 0 1 0 -12.5 0z" fill="rgba(255, 255, 255, 1)"></path><path d="M487.5 362.5L512.5 387.5L537.5 387.5L562.5 387.5L587.5 387.5L612.5 387.5L637.5 412.5L662.5 412.5L687.5 412.5L712.5 412.5L737.5 412.5L762.5 412.5L787.5 412.5L812.5 412.5L837.5 412.5L862.5 412.5L887.5 412.5L912.5 412.5M1012.5 337.5L1037.5 362.5L1062.5 362.5M637.5 337.5L662.5 337.5L687.5 337.5L712.5 337.5L737.5 337.5L762.5 337.5L787.5 337.5L812.5 337.5M587.5 337.5L612.5 362.5L637.5 362.5L662.5 387.5L687.5 387.5L712.5 387.5L737.5 387.5L762.5 387.5M862.5 362.5L887.5 337.5L912.5 337.5L937.5 337.5L962.5 337.5L987.5 337.5M912.5 362.5L937.5 387.5L962.5 387.5L987.5 387.5M837.5 362.5L862.5 337.5L887.5 312.5M812.5 362.5L837.5 387.5M412.5 387.5L437.5 387.5L462.5 387.5L487.5 387.5M537.5 362.5L562.5 362.5L587.5 362.5M237.5 412.5L262.5 412.5M-12.5 462.5L12.5 462.5L37.5 462.5L62.5 462.5L87.5 462.5L112.5 462.5L137.5 462.5L162.5 462.5L187.5 437.5L212.5 437.5L237.5 412.5L262.5 387.5L287.5 387.5L312.5 387.5L337.5 387.5L362.5 387.5L387.5 387.5L412.5 387.5L437.5 362.5L462.5 362.5L487.5 362.5L512.5 362.5L537.5 362.5L562.5 337.5L587.5 337.5L612.5 337.5L637.5 337.5L662.5 362.5L687.5 362.5L712.5 362.5L737.5 362.5L762.5 362.5L787.5 362.5L812.5 362.5L837.5 362.5L862.5 362.5L887.5 362.5L912.5 362.5L937.5 362.5L962.5 362.5L987.5 362.5L1012.5 337.5L1037.5 337.5L1062.5 337.5" stroke="rgba(247, 154, 42, 1)" stroke-width="4.17"></path><path d="M1056.25 337.5 a6.25 6.25 0 1 0 12.5 0 a6.25 6.25 0 1 0 -12.5 0zM906.25 412.5 a6.25 6.25 0 1 0 12.5 0 a6.25 6.25 0 1 0 -12.5 0zM1056.25 362.5 a6.25 6.25 0 1 0 12.5 0 a6.25 6.25 0 1 0 -12.5 0zM806.25 337.5 a6.25 6.25 0 1 0 12.5 0 a6.25 6.25 0 1 0 -12.5 0zM756.25 387.5 a6.25 6.25 0 1 0 12.5 0 a6.25 6.25 0 1 0 -12.5 0zM981.25 337.5 a6.25 6.25 0 1 0 12.5 0 a6.25 6.25 0 1 0 -12.5 0zM981.25 387.5 a6.25 6.25 0 1 0 12.5 0 a6.25 6.25 0 1 0 -12.5 0zM881.25 312.5 a6.25 6.25 0 1 0 12.5 0 a6.25 6.25 0 1 0 -12.5 0zM831.25 387.5 a6.25 6.25 0 1 0 12.5 0 a6.25 6.25 0 1 0 -12.5 0zM481.25 387.5 a6.25 6.25 0 1 0 12.5 0 a6.25 6.25 0 1 0 -12.5 0zM581.25 362.5 a6.25 6.25 0 1 0 12.5 0 a6.25 6.25 0 1 0 -12.5 0zM256.25 412.5 a6.25 6.25 0 1 0 12.5 0 a6.25 6.25 0 1 0 -12.5 0z" fill="rgba(247, 154, 42, 1)"></path><path d="M112.5 662.5L137.5 662.5L162.5 662.5L187.5 662.5L212.5 687.5M337.5 737.5L362.5 712.5L387.5 712.5L412.5 712.5L437.5 712.5L462.5 712.5L487.5 712.5L512.5 712.5M787.5 737.5L812.5 762.5M587.5 737.5L612.5 712.5L637.5 712.5M737.5 737.5L762.5 712.5L787.5 687.5L812.5 687.5L837.5 687.5L862.5 687.5L887.5 687.5M662.5 737.5L687.5 712.5L712.5 687.5L737.5 687.5M312.5 737.5L337.5 712.5M287.5 712.5L312.5 712.5M-12.5 662.5L12.5 662.5L37.5 662.5L62.5 662.5L87.5 662.5L112.5 662.5L137.5 687.5L162.5 712.5L187.5 712.5L212.5 712.5L237.5 712.5L262.5 712.5L287.5 712.5L312.5 737.5L337.5 737.5L362.5 737.5L387.5 737.5L412.5 737.5L437.5 737.5L462.5 737.5L487.5 737.5L512.5 737.5L537.5 737.5L562.5 737.5L587.5 737.5L612.5 737.5L637.5 737.5L662.5 737.5L687.5 737.5L712.5 737.5L737.5 737.5L762.5 737.5L787.5 737.5L812.5 737.5" stroke="rgba(255, 255, 255, 1)" stroke-width="4.17"></path><path d="M806.25 737.5 a6.25 6.25 0 1 0 12.5 0 a6.25 6.25 0 1 0 -12.5 0zM206.25 687.5 a6.25 6.25 0 1 0 12.5 0 a6.25 6.25 0 1 0 -12.5 0zM506.25 712.5 a6.25 6.25 0 1 0 12.5 0 a6.25 6.25 0 1 0 -12.5 0zM806.25 762.5 a6.25 6.25 0 1 0 12.5 0 a6.25 6.25 0 1 0 -12.5 0zM631.25 712.5 a6.25 6.25 0 1 0 12.5 0 a6.25 6.25 0 1 0 -12.5 0zM881.25 687.5 a6.25 6.25 0 1 0 12.5 0 a6.25 6.25 0 1 0 -12.5 0zM731.25 687.5 a6.25 6.25 0 1 0 12.5 0 a6.25 6.25 0 1 0 -12.5 0zM331.25 712.5 a6.25 6.25 0 1 0 12.5 0 a6.25 6.25 0 1 0 -12.5 0zM306.25 712.5 a6.25 6.25 0 1 0 12.5 0 a6.25 6.25 0 1 0 -12.5 0z" fill="rgba(255, 255, 255, 1)"></path><path d="M387.5 362.5L412.5 337.5M362.5 362.5L387.5 337.5M512.5 337.5L537.5 337.5M487.5 337.5L512.5 312.5M-12.5 437.5L12.5 437.5L37.5 437.5L62.5 437.5L87.5 437.5L112.5 437.5L137.5 437.5L162.5 437.5L187.5 412.5L212.5 412.5L237.5 387.5L262.5 362.5L287.5 362.5L312.5 362.5L337.5 362.5L362.5 362.5L387.5 362.5L412.5 362.5L437.5 337.5L462.5 337.5L487.5 337.5L512.5 337.5L537.5 312.5L562.5 312.5L587.5 312.5L612.5 312.5L637.5 312.5L662.5 312.5L687.5 312.5L712.5 312.5L737.5 312.5L762.5 312.5L787.5 312.5" stroke="rgba(247, 154, 42, 1)" stroke-width="4.17"></path><path d="M781.25 312.5 a6.25 6.25 0 1 0 12.5 0 a6.25 6.25 0 1 0 -12.5 0zM406.25 337.5 a6.25 6.25 0 1 0 12.5 0 a6.25 6.25 0 1 0 -12.5 0zM381.25 337.5 a6.25 6.25 0 1 0 12.5 0 a6.25 6.25 0 1 0 -12.5 0zM531.25 337.5 a6.25 6.25 0 1 0 12.5 0 a6.25 6.25 0 1 0 -12.5 0zM506.25 312.5 a6.25 6.25 0 1 0 12.5 0 a6.25 6.25 0 1 0 -12.5 0z" fill="rgba(247, 154, 42, 1)"></path><path d="M762.5 787.5L787.5 762.5M712.5 762.5L737.5 762.5L762.5 762.5M-12.5 687.5L12.5 687.5L37.5 687.5L62.5 687.5L87.5 687.5L112.5 687.5L137.5 712.5L162.5 737.5L187.5 737.5L212.5 737.5L237.5 737.5L262.5 737.5L287.5 737.5L312.5 762.5L337.5 762.5L362.5 762.5L387.5 762.5L412.5 762.5L437.5 762.5L462.5 762.5L487.5 762.5L512.5 762.5L537.5 762.5L562.5 762.5L587.5 762.5L612.5 762.5L637.5 762.5L662.5 762.5L687.5 762.5L712.5 762.5L737.5 787.5L762.5 787.5L787.5 787.5L812.5 787.5L837.5 787.5L862.5 787.5" stroke="rgba(255, 255, 255, 1)" stroke-width="4.17"></path><path d="M856.25 787.5 a6.25 6.25 0 1 0 12.5 0 a6.25 6.25 0 1 0 -12.5 0zM781.25 762.5 a6.25 6.25 0 1 0 12.5 0 a6.25 6.25 0 1 0 -12.5 0zM756.25 762.5 a6.25 6.25 0 1 0 12.5 0 a6.25 6.25 0 1 0 -12.5 0z" fill="rgba(255, 255, 255, 1)"></path><path d="M-12.5 412.5L12.5 412.5L37.5 412.5L62.5 412.5L87.5 412.5L112.5 412.5L137.5 412.5L162.5 412.5L187.5 387.5L212.5 387.5L237.5 362.5L262.5 337.5L287.5 337.5L312.5 337.5L337.5 337.5" stroke="rgba(247, 154, 42, 1)" stroke-width="4.17"></path><path d="M331.25 337.5 a6.25 6.25 0 1 0 12.5 0 a6.25 6.25 0 1 0 -12.5 0z" fill="rgba(247, 154, 42, 1)"></path><path d="M962.5 812.5L987.5 837.5L1012.5 837.5L1037.5 837.5L1062.5 862.5L1087.5 862.5L1112.5 862.5L1137.5 862.5M487.5 787.5L512.5 812.5L537.5 812.5L562.5 812.5M587.5 787.5L612.5 812.5L637.5 812.5L662.5 812.5L687.5 812.5L712.5 812.5L737.5 837.5L762.5 837.5L787.5 837.5M812.5 812.5L837.5 837.5L862.5 837.5L887.5 837.5L912.5 837.5L937.5 837.5L962.5 837.5L987.5 862.5M187.5 762.5L212.5 787.5M462.5 787.5L487.5 812.5L512.5 837.5M162.5 762.5L187.5 787.5M37.5 712.5L62.5 737.5L87.5 737.5L112.5 737.5L137.5 762.5L162.5 787.5M987.5 812.5L1012.5 787.5L1037.5 787.5L1062.5 787.5M362.5 787.5L387.5 812.5L412.5 812.5L437.5 812.5M-12.5 712.5L12.5 712.5L37.5 712.5L62.5 712.5L87.5 712.5L112.5 712.5L137.5 737.5L162.5 762.5L187.5 762.5L212.5 762.5L237.5 762.5L262.5 762.5L287.5 762.5L312.5 787.5L337.5 787.5L362.5 787.5L387.5 787.5L412.5 787.5L437.5 787.5L462.5 787.5L487.5 787.5L512.5 787.5L537.5 787.5L562.5 787.5L587.5 787.5L612.5 787.5L637.5 787.5L662.5 787.5L687.5 787.5L712.5 787.5L737.5 812.5L762.5 812.5L787.5 812.5L812.5 812.5L837.5 812.5L862.5 812.5L887.5 812.5L912.5 812.5L937.5 812.5L962.5 812.5L987.5 812.5L1012.5 812.5L1037.5 812.5" stroke="rgba(247, 154, 42, 1)" stroke-width="4.17"></path><path d="M1031.25 812.5 a6.25 6.25 0 1 0 12.5 0 a6.25 6.25 0 1 0 -12.5 0zM1131.25 862.5 a6.25 6.25 0 1 0 12.5 0 a6.25 6.25 0 1 0 -12.5 0zM556.25 812.5 a6.25 6.25 0 1 0 12.5 0 a6.25 6.25 0 1 0 -12.5 0zM781.25 837.5 a6.25 6.25 0 1 0 12.5 0 a6.25 6.25 0 1 0 -12.5 0zM981.25 862.5 a6.25 6.25 0 1 0 12.5 0 a6.25 6.25 0 1 0 -12.5 0zM206.25 787.5 a6.25 6.25 0 1 0 12.5 0 a6.25 6.25 0 1 0 -12.5 0zM506.25 837.5 a6.25 6.25 0 1 0 12.5 0 a6.25 6.25 0 1 0 -12.5 0zM181.25 787.5 a6.25 6.25 0 1 0 12.5 0 a6.25 6.25 0 1 0 -12.5 0zM156.25 787.5 a6.25 6.25 0 1 0 12.5 0 a6.25 6.25 0 1 0 -12.5 0zM1056.25 787.5 a6.25 6.25 0 1 0 12.5 0 a6.25 6.25 0 1 0 -12.5 0zM431.25 812.5 a6.25 6.25 0 1 0 12.5 0 a6.25 6.25 0 1 0 -12.5 0z" fill="rgba(247, 154, 42, 1)"></path><path d="M1112.5 312.5L1137.5 287.5L1162.5 287.5M1187.5 312.5L1212.5 337.5L1237.5 362.5L1262.5 362.5L1287.5 337.5L1312.5 312.5L1337.5 312.5M987.5 312.5L1012.5 287.5L1037.5 262.5L1062.5 262.5L1087.5 262.5L1112.5 262.5L1137.5 237.5L1162.5 237.5L1187.5 262.5L1212.5 262.5L1237.5 262.5L1262.5 262.5L1287.5 262.5L1312.5 262.5L1337.5 262.5L1362.5 262.5L1387.5 262.5M812.5 287.5L837.5 312.5L862.5 312.5M737.5 287.5L762.5 262.5M787.5 287.5L812.5 262.5L837.5 262.5L862.5 262.5L887.5 262.5M462.5 312.5L487.5 312.5M962.5 312.5L987.5 287.5L1012.5 262.5L1037.5 237.5L1062.5 212.5L1087.5 212.5L1112.5 212.5L1137.5 212.5L1162.5 212.5L1187.5 212.5L1212.5 212.5L1237.5 212.5M887.5 287.5L912.5 287.5L937.5 287.5L962.5 262.5L987.5 262.5M1237.5 312.5L1262.5 337.5M1212.5 312.5L1237.5 287.5M1062.5 312.5L1087.5 287.5L1112.5 287.5M1162.5 312.5L1187.5 337.5L1212.5 362.5M-12.5 387.5L12.5 387.5L37.5 387.5L62.5 387.5L87.5 387.5L112.5 387.5L137.5 387.5L162.5 387.5L187.5 362.5L212.5 362.5L237.5 337.5L262.5 312.5L287.5 312.5L312.5 312.5L337.5 312.5L362.5 312.5L387.5 312.5L412.5 312.5L437.5 312.5L462.5 312.5L487.5 287.5L512.5 287.5L537.5 287.5L562.5 287.5L587.5 287.5L612.5 287.5L637.5 287.5L662.5 287.5L687.5 287.5L712.5 287.5L737.5 287.5L762.5 287.5L787.5 287.5L812.5 287.5L837.5 287.5L862.5 287.5L887.5 287.5L912.5 312.5L937.5 312.5L962.5 312.5L987.5 312.5L1012.5 312.5L1037.5 312.5L1062.5 312.5L1087.5 312.5L1112.5 312.5L1137.5 312.5L1162.5 312.5L1187.5 312.5L1212.5 312.5L1237.5 312.5L1262.5 287.5" stroke="rgba(247, 154, 42, 1)" stroke-width="4.17"></path><path d="M1256.25 287.5 a6.25 6.25 0 1 0 12.5 0 a6.25 6.25 0 1 0 -12.5 0zM1156.25 287.5 a6.25 6.25 0 1 0 12.5 0 a6.25 6.25 0 1 0 -12.5 0zM1331.25 312.5 a6.25 6.25 0 1 0 12.5 0 a6.25 6.25 0 1 0 -12.5 0zM1381.25 262.5 a6.25 6.25 0 1 0 12.5 0 a6.25 6.25 0 1 0 -12.5 0zM856.25 312.5 a6.25 6.25 0 1 0 12.5 0 a6.25 6.25 0 1 0 -12.5 0zM756.25 262.5 a6.25 6.25 0 1 0 12.5 0 a6.25 6.25 0 1 0 -12.5 0zM881.25 262.5 a6.25 6.25 0 1 0 12.5 0 a6.25 6.25 0 1 0 -12.5 0zM481.25 312.5 a6.25 6.25 0 1 0 12.5 0 a6.25 6.25 0 1 0 -12.5 0zM1231.25 212.5 a6.25 6.25 0 1 0 12.5 0 a6.25 6.25 0 1 0 -12.5 0zM981.25 262.5 a6.25 6.25 0 1 0 12.5 0 a6.25 6.25 0 1 0 -12.5 0zM1256.25 337.5 a6.25 6.25 0 1 0 12.5 0 a6.25 6.25 0 1 0 -12.5 0zM1231.25 287.5 a6.25 6.25 0 1 0 12.5 0 a6.25 6.25 0 1 0 -12.5 0zM1106.25 287.5 a6.25 6.25 0 1 0 12.5 0 a6.25 6.25 0 1 0 -12.5 0zM1206.25 362.5 a6.25 6.25 0 1 0 12.5 0 a6.25 6.25 0 1 0 -12.5 0z" fill="rgba(247, 154, 42, 1)"></path><path d="M-12.5 737.5L12.5 737.5" stroke="rgba(255, 255, 255, 1)" stroke-width="4.17"></path><path d="M6.25 737.5 a6.25 6.25 0 1 0 12.5 0 a6.25 6.25 0 1 0 -12.5 0z" fill="rgba(255, 255, 255, 1)"></path><path d="M762.5 237.5L787.5 212.5L812.5 212.5M137.5 362.5L162.5 362.5M712.5 262.5L737.5 262.5M-12.5 362.5L12.5 362.5L37.5 362.5L62.5 362.5L87.5 362.5L112.5 362.5L137.5 362.5L162.5 337.5L187.5 337.5L212.5 337.5L237.5 312.5L262.5 287.5L287.5 287.5L312.5 287.5L337.5 287.5L362.5 287.5L387.5 287.5L412.5 287.5L437.5 287.5L462.5 287.5L487.5 262.5L512.5 262.5L537.5 262.5L562.5 262.5L587.5 262.5L612.5 262.5L637.5 262.5L662.5 262.5L687.5 262.5L712.5 262.5L737.5 237.5L762.5 237.5L787.5 237.5L812.5 237.5L837.5 237.5L862.5 237.5L887.5 237.5" stroke="rgba(247, 154, 42, 1)" stroke-width="4.17"></path><path d="M881.25 237.5 a6.25 6.25 0 1 0 12.5 0 a6.25 6.25 0 1 0 -12.5 0zM806.25 212.5 a6.25 6.25 0 1 0 12.5 0 a6.25 6.25 0 1 0 -12.5 0zM156.25 362.5 a6.25 6.25 0 1 0 12.5 0 a6.25 6.25 0 1 0 -12.5 0zM731.25 262.5 a6.25 6.25 0 1 0 12.5 0 a6.25 6.25 0 1 0 -12.5 0z" fill="rgba(247, 154, 42, 1)"></path><path d="M37.5 812.5L62.5 787.5M362.5 837.5L387.5 862.5L412.5 862.5M337.5 837.5L362.5 812.5M87.5 812.5L112.5 787.5L137.5 787.5M-12.5 762.5L12.5 787.5L37.5 812.5L62.5 812.5L87.5 812.5L112.5 812.5L137.5 812.5L162.5 812.5L187.5 812.5L212.5 812.5L237.5 787.5L262.5 787.5L287.5 787.5L312.5 812.5L337.5 837.5L362.5 837.5L387.5 837.5" stroke="rgba(255, 255, 255, 1)" stroke-width="4.17"></path><path d="M381.25 837.5 a6.25 6.25 0 1 0 12.5 0 a6.25 6.25 0 1 0 -12.5 0zM56.25 787.5 a6.25 6.25 0 1 0 12.5 0 a6.25 6.25 0 1 0 -12.5 0zM406.25 862.5 a6.25 6.25 0 1 0 12.5 0 a6.25 6.25 0 1 0 -12.5 0zM356.25 812.5 a6.25 6.25 0 1 0 12.5 0 a6.25 6.25 0 1 0 -12.5 0zM131.25 787.5 a6.25 6.25 0 1 0 12.5 0 a6.25 6.25 0 1 0 -12.5 0z" fill="rgba(255, 255, 255, 1)"></path><path d="M687.5 237.5L712.5 237.5M812.5 187.5L837.5 187.5L862.5 187.5L887.5 162.5L912.5 162.5L937.5 162.5L962.5 162.5M437.5 262.5L462.5 237.5L487.5 212.5L512.5 212.5L537.5 212.5L562.5 212.5M937.5 187.5L962.5 212.5L987.5 212.5L1012.5 212.5L1037.5 212.5L1062.5 187.5L1087.5 187.5L1112.5 187.5L1137.5 187.5L1162.5 187.5M862.5 212.5L887.5 212.5L912.5 212.5L937.5 212.5L962.5 237.5L987.5 237.5L1012.5 237.5M737.5 212.5L762.5 212.5M-12.5 337.5L12.5 337.5L37.5 337.5L62.5 337.5L87.5 337.5L112.5 337.5L137.5 337.5L162.5 312.5L187.5 312.5L212.5 312.5L237.5 287.5L262.5 262.5L287.5 262.5L312.5 262.5L337.5 262.5L362.5 262.5L387.5 262.5L412.5 262.5L437.5 262.5L462.5 262.5L487.5 237.5L512.5 237.5L537.5 237.5L562.5 237.5L587.5 237.5L612.5 237.5L637.5 237.5L662.5 237.5L687.5 237.5L712.5 212.5L737.5 212.5L762.5 187.5L787.5 187.5L812.5 187.5L837.5 212.5L862.5 212.5L887.5 187.5L912.5 187.5L937.5 187.5L962.5 187.5" stroke="rgba(247, 154, 42, 1)" stroke-width="4.17"></path><path d="M956.25 187.5 a6.25 6.25 0 1 0 12.5 0 a6.25 6.25 0 1 0 -12.5 0zM706.25 237.5 a6.25 6.25 0 1 0 12.5 0 a6.25 6.25 0 1 0 -12.5 0zM956.25 162.5 a6.25 6.25 0 1 0 12.5 0 a6.25 6.25 0 1 0 -12.5 0zM556.25 212.5 a6.25 6.25 0 1 0 12.5 0 a6.25 6.25 0 1 0 -12.5 0zM1156.25 187.5 a6.25 6.25 0 1 0 12.5 0 a6.25 6.25 0 1 0 -12.5 0zM1006.25 237.5 a6.25 6.25 0 1 0 12.5 0 a6.25 6.25 0 1 0 -12.5 0zM756.25 212.5 a6.25 6.25 0 1 0 12.5 0 a6.25 6.25 0 1 0 -12.5 0z" fill="rgba(247, 154, 42, 1)"></path><path d="M-12.5 787.5L12.5 812.5L37.5 837.5L62.5 837.5L87.5 837.5" stroke="rgba(255, 255, 255, 1)" stroke-width="4.17"></path><path d="M81.25 837.5 a6.25 6.25 0 1 0 12.5 0 a6.25 6.25 0 1 0 -12.5 0z" fill="rgba(255, 255, 255, 1)"></path><path d="M312.5 237.5L337.5 212.5M387.5 237.5L412.5 212.5L437.5 212.5L462.5 212.5M362.5 237.5L387.5 212.5M-12.5 312.5L12.5 312.5L37.5 312.5L62.5 312.5L87.5 312.5L112.5 312.5L137.5 312.5L162.5 287.5L187.5 287.5L212.5 287.5L237.5 262.5L262.5 237.5L287.5 237.5L312.5 237.5L337.5 237.5L362.5 237.5L387.5 237.5L412.5 237.5" stroke="rgba(247, 154, 42, 1)" stroke-width="4.17"></path><path d="M406.25 237.5 a6.25 6.25 0 1 0 12.5 0 a6.25 6.25 0 1 0 -12.5 0zM331.25 212.5 a6.25 6.25 0 1 0 12.5 0 a6.25 6.25 0 1 0 -12.5 0zM456.25 212.5 a6.25 6.25 0 1 0 12.5 0 a6.25 6.25 0 1 0 -12.5 0zM381.25 212.5 a6.25 6.25 0 1 0 12.5 0 a6.25 6.25 0 1 0 -12.5 0z" fill="rgba(247, 154, 42, 1)"></path><path d="M262.5 837.5L287.5 812.5M62.5 862.5L87.5 887.5L112.5 887.5M187.5 862.5L212.5 887.5L237.5 887.5L262.5 887.5L287.5 887.5M-12.5 812.5L12.5 837.5L37.5 862.5L62.5 862.5L87.5 862.5L112.5 862.5L137.5 862.5L162.5 862.5L187.5 862.5L212.5 862.5L237.5 862.5L262.5 837.5L287.5 837.5" stroke="rgba(247, 154, 42, 1)" stroke-width="4.17"></path><path d="M281.25 837.5 a6.25 6.25 0 1 0 12.5 0 a6.25 6.25 0 1 0 -12.5 0zM281.25 812.5 a6.25 6.25 0 1 0 12.5 0 a6.25 6.25 0 1 0 -12.5 0zM106.25 887.5 a6.25 6.25 0 1 0 12.5 0 a6.25 6.25 0 1 0 -12.5 0zM281.25 887.5 a6.25 6.25 0 1 0 12.5 0 a6.25 6.25 0 1 0 -12.5 0z" fill="rgba(247, 154, 42, 1)"></path><path d="M1262.5 137.5L1287.5 137.5L1312.5 137.5L1337.5 137.5L1362.5 162.5L1387.5 162.5M487.5 187.5L512.5 162.5L537.5 162.5L562.5 162.5L587.5 162.5L612.5 162.5L637.5 162.5L662.5 162.5L687.5 162.5L712.5 162.5L737.5 137.5M37.5 287.5L62.5 262.5L87.5 262.5L112.5 262.5L137.5 262.5L162.5 237.5L187.5 237.5L212.5 237.5L237.5 212.5L262.5 187.5L287.5 162.5M312.5 187.5L337.5 162.5L362.5 162.5L387.5 162.5M1237.5 137.5L1262.5 112.5L1287.5 87.5L1312.5 87.5L1337.5 87.5M287.5 187.5L312.5 212.5M637.5 212.5L662.5 187.5L687.5 187.5M562.5 187.5L587.5 187.5L612.5 187.5L637.5 187.5M1162.5 137.5L1187.5 112.5L1212.5 112.5L1237.5 112.5L1262.5 87.5L1287.5 62.5L1312.5 62.5L1337.5 62.5L1362.5 87.5L1387.5 87.5M862.5 137.5L887.5 112.5L912.5 112.5L937.5 112.5L962.5 112.5L987.5 112.5L1012.5 112.5L1037.5 112.5L1062.5 112.5M1087.5 137.5L1112.5 162.5L1137.5 162.5M787.5 162.5L812.5 137.5L837.5 112.5M1112.5 137.5L1137.5 112.5L1162.5 112.5L1187.5 87.5L1212.5 87.5M-12.5 287.5L12.5 287.5L37.5 287.5L62.5 287.5L87.5 287.5L112.5 287.5L137.5 287.5L162.5 262.5L187.5 262.5L212.5 262.5L237.5 237.5L262.5 212.5L287.5 187.5L312.5 187.5L337.5 187.5L362.5 187.5L387.5 187.5L412.5 187.5L437.5 187.5L462.5 187.5L487.5 187.5L512.5 187.5L537.5 187.5L562.5 187.5L587.5 212.5L612.5 212.5L637.5 212.5L662.5 212.5L687.5 212.5L712.5 187.5L737.5 162.5L762.5 162.5L787.5 162.5L812.5 162.5L837.5 137.5L862.5 137.5L887.5 137.5L912.5 137.5L937.5 137.5L962.5 137.5L987.5 137.5L1012.5 137.5L1037.5 137.5L1062.5 137.5L1087.5 137.5L1112.5 137.5L1137.5 137.5L1162.5 137.5L1187.5 137.5L1212.5 137.5L1237.5 137.5L1262.5 137.5L1287.5 112.5" stroke="rgba(255, 255, 255, 1)" stroke-width="4.17"></path><path d="M1281.25 112.5 a6.25 6.25 0 1 0 12.5 0 a6.25 6.25 0 1 0 -12.5 0zM1381.25 162.5 a6.25 6.25 0 1 0 12.5 0 a6.25 6.25 0 1 0 -12.5 0zM731.25 137.5 a6.25 6.25 0 1 0 12.5 0 a6.25 6.25 0 1 0 -12.5 0zM281.25 162.5 a6.25 6.25 0 1 0 12.5 0 a6.25 6.25 0 1 0 -12.5 0zM381.25 162.5 a6.25 6.25 0 1 0 12.5 0 a6.25 6.25 0 1 0 -12.5 0zM1331.25 87.5 a6.25 6.25 0 1 0 12.5 0 a6.25 6.25 0 1 0 -12.5 0zM306.25 212.5 a6.25 6.25 0 1 0 12.5 0 a6.25 6.25 0 1 0 -12.5 0zM681.25 187.5 a6.25 6.25 0 1 0 12.5 0 a6.25 6.25 0 1 0 -12.5 0zM631.25 187.5 a6.25 6.25 0 1 0 12.5 0 a6.25 6.25 0 1 0 -12.5 0zM1381.25 87.5 a6.25 6.25 0 1 0 12.5 0 a6.25 6.25 0 1 0 -12.5 0zM1056.25 112.5 a6.25 6.25 0 1 0 12.5 0 a6.25 6.25 0 1 0 -12.5 0zM1131.25 162.5 a6.25 6.25 0 1 0 12.5 0 a6.25 6.25 0 1 0 -12.5 0zM831.25 112.5 a6.25 6.25 0 1 0 12.5 0 a6.25 6.25 0 1 0 -12.5 0zM1206.25 87.5 a6.25 6.25 0 1 0 12.5 0 a6.25 6.25 0 1 0 -12.5 0z" fill="rgba(255, 255, 255, 1)"></path></g></g><defs><mask id="SvgjsMask1042"><rect width="2880" height="1120" fill="#ffffff"></rect></mask><mask id="SvgjsMask1043"><rect width="2880" height="1120" fill="white"></rect><path d="M1034.37 562.5 a3.13 3.13 0 1 0 6.26 0 a3.13 3.13 0 1 0 -6.26 0zM434.37 537.5 a3.13 3.13 0 1 0 6.26 0 a3.13 3.13 0 1 0 -6.26 0zM359.37 537.5 a3.13 3.13 0 1 0 6.26 0 a3.13 3.13 0 1 0 -6.26 0zM609.37 537.5 a3.13 3.13 0 1 0 6.26 0 a3.13 3.13 0 1 0 -6.26 0zM884.37 512.5 a3.13 3.13 0 1 0 6.26 0 a3.13 3.13 0 1 0 -6.26 0zM1059.37 512.5 a3.13 3.13 0 1 0 6.26 0 a3.13 3.13 0 1 0 -6.26 0zM809.37 512.5 a3.13 3.13 0 1 0 6.26 0 a3.13 3.13 0 1 0 -6.26 0zM684.37 537.5 a3.13 3.13 0 1 0 6.26 0 a3.13 3.13 0 1 0 -6.26 0zM234.37 537.5 a3.13 3.13 0 1 0 6.26 0 a3.13 3.13 0 1 0 -6.26 0zM1034.37 612.5 a3.13 3.13 0 1 0 6.26 0 a3.13 3.13 0 1 0 -6.26 0zM509.37 587.5 a3.13 3.13 0 1 0 6.26 0 a3.13 3.13 0 1 0 -6.26 0z" fill="black"></path><path d="M534.37 512.5 a3.13 3.13 0 1 0 6.26 0 a3.13 3.13 0 1 0 -6.26 0zM509.37 462.5 a3.13 3.13 0 1 0 6.26 0 a3.13 3.13 0 1 0 -6.26 0zM409.37 462.5 a3.13 3.13 0 1 0 6.26 0 a3.13 3.13 0 1 0 -6.26 0zM259.37 487.5 a3.13 3.13 0 1 0 6.26 0 a3.13 3.13 0 1 0 -6.26 0zM184.37 537.5 a3.13 3.13 0 1 0 6.26 0 a3.13 3.13 0 1 0 -6.26 0zM484.37 537.5 a3.13 3.13 0 1 0 6.26 0 a3.13 3.13 0 1 0 -6.26 0z" fill="black"></path><path d="M109.37 587.5 a3.13 3.13 0 1 0 6.26 0 a3.13 3.13 0 1 0 -6.26 0z" fill="black"></path><path d="M359.37 462.5 a3.13 3.13 0 1 0 6.26 0 a3.13 3.13 0 1 0 -6.26 0zM309.37 462.5 a3.13 3.13 0 1 0 6.26 0 a3.13 3.13 0 1 0 -6.26 0zM359.37 487.5 a3.13 3.13 0 1 0 6.26 0 a3.13 3.13 0 1 0 -6.26 0zM409.37 437.5 a3.13 3.13 0 1 0 6.26 0 a3.13 3.13 0 1 0 -6.26 0zM234.37 487.5 a3.13 3.13 0 1 0 6.26 0 a3.13 3.13 0 1 0 -6.26 0z" fill="black"></path><path d="M409.37 587.5 a3.13 3.13 0 1 0 6.26 0 a3.13 3.13 0 1 0 -6.26 0zM259.37 612.5 a3.13 3.13 0 1 0 6.26 0 a3.13 3.13 0 1 0 -6.26 0zM209.37 612.5 a3.13 3.13 0 1 0 6.26 0 a3.13 3.13 0 1 0 -6.26 0zM159.37 612.5 a3.13 3.13 0 1 0 6.26 0 a3.13 3.13 0 1 0 -6.26 0z" fill="black"></path><path d="M484.37 412.5 a3.13 3.13 0 1 0 6.26 0 a3.13 3.13 0 1 0 -6.26 0zM334.37 437.5 a3.13 3.13 0 1 0 6.26 0 a3.13 3.13 0 1 0 -6.26 0zM309.37 412.5 a3.13 3.13 0 1 0 6.26 0 a3.13 3.13 0 1 0 -6.26 0zM559.37 437.5 a3.13 3.13 0 1 0 6.26 0 a3.13 3.13 0 1 0 -6.26 0zM484.37 462.5 a3.13 3.13 0 1 0 6.26 0 a3.13 3.13 0 1 0 -6.26 0z" fill="black"></path><path d="M809.37 587.5 a3.13 3.13 0 1 0 6.26 0 a3.13 3.13 0 1 0 -6.26 0zM559.37 662.5 a3.13 3.13 0 1 0 6.26 0 a3.13 3.13 0 1 0 -6.26 0zM284.37 662.5 a3.13 3.13 0 1 0 6.26 0 a3.13 3.13 0 1 0 -6.26 0zM659.37 612.5 a3.13 3.13 0 1 0 6.26 0 a3.13 3.13 0 1 0 -6.26 0zM784.37 612.5 a3.13 3.13 0 1 0 6.26 0 a3.13 3.13 0 1 0 -6.26 0zM234.37 662.5 a3.13 3.13 0 1 0 6.26 0 a3.13 3.13 0 1 0 -6.26 0zM834.37 637.5 a3.13 3.13 0 1 0 6.26 0 a3.13 3.13 0 1 0 -6.26 0zM259.37 687.5 a3.13 3.13 0 1 0 6.26 0 a3.13 3.13 0 1 0 -6.26 0zM559.37 712.5 a3.13 3.13 0 1 0 6.26 0 a3.13 3.13 0 1 0 -6.26 0z" fill="black"></path><path d="M1059.37 337.5 a3.13 3.13 0 1 0 6.26 0 a3.13 3.13 0 1 0 -6.26 0zM909.37 412.5 a3.13 3.13 0 1 0 6.26 0 a3.13 3.13 0 1 0 -6.26 0zM1059.37 362.5 a3.13 3.13 0 1 0 6.26 0 a3.13 3.13 0 1 0 -6.26 0zM809.37 337.5 a3.13 3.13 0 1 0 6.26 0 a3.13 3.13 0 1 0 -6.26 0zM759.37 387.5 a3.13 3.13 0 1 0 6.26 0 a3.13 3.13 0 1 0 -6.26 0zM984.37 337.5 a3.13 3.13 0 1 0 6.26 0 a3.13 3.13 0 1 0 -6.26 0zM984.37 387.5 a3.13 3.13 0 1 0 6.26 0 a3.13 3.13 0 1 0 -6.26 0zM884.37 312.5 a3.13 3.13 0 1 0 6.26 0 a3.13 3.13 0 1 0 -6.26 0zM834.37 387.5 a3.13 3.13 0 1 0 6.26 0 a3.13 3.13 0 1 0 -6.26 0zM484.37 387.5 a3.13 3.13 0 1 0 6.26 0 a3.13 3.13 0 1 0 -6.26 0zM584.37 362.5 a3.13 3.13 0 1 0 6.26 0 a3.13 3.13 0 1 0 -6.26 0zM259.37 412.5 a3.13 3.13 0 1 0 6.26 0 a3.13 3.13 0 1 0 -6.26 0z" fill="black"></path><path d="M809.37 737.5 a3.13 3.13 0 1 0 6.26 0 a3.13 3.13 0 1 0 -6.26 0zM209.37 687.5 a3.13 3.13 0 1 0 6.26 0 a3.13 3.13 0 1 0 -6.26 0zM509.37 712.5 a3.13 3.13 0 1 0 6.26 0 a3.13 3.13 0 1 0 -6.26 0zM809.37 762.5 a3.13 3.13 0 1 0 6.26 0 a3.13 3.13 0 1 0 -6.26 0zM634.37 712.5 a3.13 3.13 0 1 0 6.26 0 a3.13 3.13 0 1 0 -6.26 0zM884.37 687.5 a3.13 3.13 0 1 0 6.26 0 a3.13 3.13 0 1 0 -6.26 0zM734.37 687.5 a3.13 3.13 0 1 0 6.26 0 a3.13 3.13 0 1 0 -6.26 0zM334.37 712.5 a3.13 3.13 0 1 0 6.26 0 a3.13 3.13 0 1 0 -6.26 0zM309.37 712.5 a3.13 3.13 0 1 0 6.26 0 a3.13 3.13 0 1 0 -6.26 0z" fill="black"></path><path d="M784.37 312.5 a3.13 3.13 0 1 0 6.26 0 a3.13 3.13 0 1 0 -6.26 0zM409.37 337.5 a3.13 3.13 0 1 0 6.26 0 a3.13 3.13 0 1 0 -6.26 0zM384.37 337.5 a3.13 3.13 0 1 0 6.26 0 a3.13 3.13 0 1 0 -6.26 0zM534.37 337.5 a3.13 3.13 0 1 0 6.26 0 a3.13 3.13 0 1 0 -6.26 0zM509.37 312.5 a3.13 3.13 0 1 0 6.26 0 a3.13 3.13 0 1 0 -6.26 0z" fill="black"></path><path d="M859.37 787.5 a3.13 3.13 0 1 0 6.26 0 a3.13 3.13 0 1 0 -6.26 0zM784.37 762.5 a3.13 3.13 0 1 0 6.26 0 a3.13 3.13 0 1 0 -6.26 0zM759.37 762.5 a3.13 3.13 0 1 0 6.26 0 a3.13 3.13 0 1 0 -6.26 0z" fill="black"></path><path d="M334.37 337.5 a3.13 3.13 0 1 0 6.26 0 a3.13 3.13 0 1 0 -6.26 0z" fill="black"></path><path d="M1034.37 812.5 a3.13 3.13 0 1 0 6.26 0 a3.13 3.13 0 1 0 -6.26 0zM1134.37 862.5 a3.13 3.13 0 1 0 6.26 0 a3.13 3.13 0 1 0 -6.26 0zM559.37 812.5 a3.13 3.13 0 1 0 6.26 0 a3.13 3.13 0 1 0 -6.26 0zM784.37 837.5 a3.13 3.13 0 1 0 6.26 0 a3.13 3.13 0 1 0 -6.26 0zM984.37 862.5 a3.13 3.13 0 1 0 6.26 0 a3.13 3.13 0 1 0 -6.26 0zM209.37 787.5 a3.13 3.13 0 1 0 6.26 0 a3.13 3.13 0 1 0 -6.26 0zM509.37 837.5 a3.13 3.13 0 1 0 6.26 0 a3.13 3.13 0 1 0 -6.26 0zM184.37 787.5 a3.13 3.13 0 1 0 6.26 0 a3.13 3.13 0 1 0 -6.26 0zM159.37 787.5 a3.13 3.13 0 1 0 6.26 0 a3.13 3.13 0 1 0 -6.26 0zM1059.37 787.5 a3.13 3.13 0 1 0 6.26 0 a3.13 3.13 0 1 0 -6.26 0zM434.37 812.5 a3.13 3.13 0 1 0 6.26 0 a3.13 3.13 0 1 0 -6.26 0z" fill="black"></path><path d="M1259.37 287.5 a3.13 3.13 0 1 0 6.26 0 a3.13 3.13 0 1 0 -6.26 0zM1159.37 287.5 a3.13 3.13 0 1 0 6.26 0 a3.13 3.13 0 1 0 -6.26 0zM1334.37 312.5 a3.13 3.13 0 1 0 6.26 0 a3.13 3.13 0 1 0 -6.26 0zM1384.37 262.5 a3.13 3.13 0 1 0 6.26 0 a3.13 3.13 0 1 0 -6.26 0zM859.37 312.5 a3.13 3.13 0 1 0 6.26 0 a3.13 3.13 0 1 0 -6.26 0zM759.37 262.5 a3.13 3.13 0 1 0 6.26 0 a3.13 3.13 0 1 0 -6.26 0zM884.37 262.5 a3.13 3.13 0 1 0 6.26 0 a3.13 3.13 0 1 0 -6.26 0zM484.37 312.5 a3.13 3.13 0 1 0 6.26 0 a3.13 3.13 0 1 0 -6.26 0zM1234.37 212.5 a3.13 3.13 0 1 0 6.26 0 a3.13 3.13 0 1 0 -6.26 0zM984.37 262.5 a3.13 3.13 0 1 0 6.26 0 a3.13 3.13 0 1 0 -6.26 0zM1259.37 337.5 a3.13 3.13 0 1 0 6.26 0 a3.13 3.13 0 1 0 -6.26 0zM1234.37 287.5 a3.13 3.13 0 1 0 6.26 0 a3.13 3.13 0 1 0 -6.26 0zM1109.37 287.5 a3.13 3.13 0 1 0 6.26 0 a3.13 3.13 0 1 0 -6.26 0zM1209.37 362.5 a3.13 3.13 0 1 0 6.26 0 a3.13 3.13 0 1 0 -6.26 0z" fill="black"></path><path d="M9.37 737.5 a3.13 3.13 0 1 0 6.26 0 a3.13 3.13 0 1 0 -6.26 0z" fill="black"></path><path d="M884.37 237.5 a3.13 3.13 0 1 0 6.26 0 a3.13 3.13 0 1 0 -6.26 0zM809.37 212.5 a3.13 3.13 0 1 0 6.26 0 a3.13 3.13 0 1 0 -6.26 0zM159.37 362.5 a3.13 3.13 0 1 0 6.26 0 a3.13 3.13 0 1 0 -6.26 0zM734.37 262.5 a3.13 3.13 0 1 0 6.26 0 a3.13 3.13 0 1 0 -6.26 0z" fill="black"></path><path d="M384.37 837.5 a3.13 3.13 0 1 0 6.26 0 a3.13 3.13 0 1 0 -6.26 0zM59.37 787.5 a3.13 3.13 0 1 0 6.26 0 a3.13 3.13 0 1 0 -6.26 0zM409.37 862.5 a3.13 3.13 0 1 0 6.26 0 a3.13 3.13 0 1 0 -6.26 0zM359.37 812.5 a3.13 3.13 0 1 0 6.26 0 a3.13 3.13 0 1 0 -6.26 0zM134.37 787.5 a3.13 3.13 0 1 0 6.26 0 a3.13 3.13 0 1 0 -6.26 0z" fill="black"></path><path d="M959.37 187.5 a3.13 3.13 0 1 0 6.26 0 a3.13 3.13 0 1 0 -6.26 0zM709.37 237.5 a3.13 3.13 0 1 0 6.26 0 a3.13 3.13 0 1 0 -6.26 0zM959.37 162.5 a3.13 3.13 0 1 0 6.26 0 a3.13 3.13 0 1 0 -6.26 0zM559.37 212.5 a3.13 3.13 0 1 0 6.26 0 a3.13 3.13 0 1 0 -6.26 0zM1159.37 187.5 a3.13 3.13 0 1 0 6.26 0 a3.13 3.13 0 1 0 -6.26 0zM1009.37 237.5 a3.13 3.13 0 1 0 6.26 0 a3.13 3.13 0 1 0 -6.26 0zM759.37 212.5 a3.13 3.13 0 1 0 6.26 0 a3.13 3.13 0 1 0 -6.26 0z" fill="black"></path><path d="M84.37 837.5 a3.13 3.13 0 1 0 6.26 0 a3.13 3.13 0 1 0 -6.26 0z" fill="black"></path><path d="M409.37 237.5 a3.13 3.13 0 1 0 6.26 0 a3.13 3.13 0 1 0 -6.26 0zM334.37 212.5 a3.13 3.13 0 1 0 6.26 0 a3.13 3.13 0 1 0 -6.26 0zM459.37 212.5 a3.13 3.13 0 1 0 6.26 0 a3.13 3.13 0 1 0 -6.26 0zM384.37 212.5 a3.13 3.13 0 1 0 6.26 0 a3.13 3.13 0 1 0 -6.26 0z" fill="black"></path><path d="M284.37 837.5 a3.13 3.13 0 1 0 6.26 0 a3.13 3.13 0 1 0 -6.26 0zM284.37 812.5 a3.13 3.13 0 1 0 6.26 0 a3.13 3.13 0 1 0 -6.26 0zM109.37 887.5 a3.13 3.13 0 1 0 6.26 0 a3.13 3.13 0 1 0 -6.26 0zM284.37 887.5 a3.13 3.13 0 1 0 6.26 0 a3.13 3.13 0 1 0 -6.26 0z" fill="black"></path><path d="M1284.37 112.5 a3.13 3.13 0 1 0 6.26 0 a3.13 3.13 0 1 0 -6.26 0zM1384.37 162.5 a3.13 3.13 0 1 0 6.26 0 a3.13 3.13 0 1 0 -6.26 0zM734.37 137.5 a3.13 3.13 0 1 0 6.26 0 a3.13 3.13 0 1 0 -6.26 0zM284.37 162.5 a3.13 3.13 0 1 0 6.26 0 a3.13 3.13 0 1 0 -6.26 0zM384.37 162.5 a3.13 3.13 0 1 0 6.26 0 a3.13 3.13 0 1 0 -6.26 0zM1334.37 87.5 a3.13 3.13 0 1 0 6.26 0 a3.13 3.13 0 1 0 -6.26 0zM309.37 212.5 a3.13 3.13 0 1 0 6.26 0 a3.13 3.13 0 1 0 -6.26 0zM684.37 187.5 a3.13 3.13 0 1 0 6.26 0 a3.13 3.13 0 1 0 -6.26 0zM634.37 187.5 a3.13 3.13 0 1 0 6.26 0 a3.13 3.13 0 1 0 -6.26 0zM1384.37 87.5 a3.13 3.13 0 1 0 6.26 0 a3.13 3.13 0 1 0 -6.26 0zM1059.37 112.5 a3.13 3.13 0 1 0 6.26 0 a3.13 3.13 0 1 0 -6.26 0zM1134.37 162.5 a3.13 3.13 0 1 0 6.26 0 a3.13 3.13 0 1 0 -6.26 0zM834.37 112.5 a3.13 3.13 0 1 0 6.26 0 a3.13 3.13 0 1 0 -6.26 0zM1209.37 87.5 a3.13 3.13 0 1 0 6.26 0 a3.13 3.13 0 1 0 -6.26 0z" fill="black"></path></mask></defs></svg>