<svg xmlns="http://www.w3.org/2000/svg" version="1.1" xmlns:xlink="http://www.w3.org/1999/xlink" xmlns:svgjs="http://svgjs.com/svgjs" width="800" height="800" preserveAspectRatio="none" viewBox="0 0 800 800"><g mask="url(&quot;#SvgjsMask1056&quot;)" fill="none"><path d="M24.141477799482956 110.3271718220908L182.2121917058573-31.727795451774682 6.555262696706819-92.21132657528764z" fill="rgba(17, 166, 224, 1)" class="triangle-float1"></path><path d="M601.279039889081 641.0454850514386L736.5634374180513 655.2644481970988 615.4980030347411 505.7610875224683z" fill="rgba(17, 166, 224, 1)" class="triangle-float3"></path><path d="M337.8499173400316 57.52535717077944L232.87172080360716 173.89224243867025 366.3598014718926 204.71039415938057z" fill="rgba(17, 166, 224, 1)" class="triangle-float1"></path><path d="M390.85777313543053 351.3713202283498L403.5282364543361 230.8199144084233 270.306367315504 338.70085690944427z" fill="rgba(17, 166, 224, 1)" class="triangle-float3"></path><path d="M288.6457874994003 225.49176191103152L322.33469053227486 351.2204596809807 448.06338830222404 317.5315566481061 414.37448526934946 191.80285887815694z" fill="rgba(17, 166, 224, 1)" class="triangle-float3"></path><path d="M613.7617347073497 196.7852535929486L722.9290616352143 28.682311663437474 554.8261197057033-80.48501526442726 445.6587927778385 87.6179266650839z" fill="rgba(17, 166, 224, 1)" class="triangle-float2"></path><path d="M280.7602164535275 240.47475212584803L131.86680392260686 151.01056410339314 42.40261590015197 299.9039766343138 191.2960284310726 389.36816465676867z" fill="rgba(17, 166, 224, 1)" class="triangle-float2"></path><path d="M554.55395576899 289.7329841618963L634.8419806362633 156.11127169684517 394.26539950505 102.49009062846082z" fill="rgba(17, 166, 224, 1)" class="triangle-float3"></path><path d="M323.68180677306714 660.8970352146698L190.51265220269943 477.60541849958463 140.39019005798193 794.0661897850375z" fill="rgba(17, 166, 224, 1)" class="triangle-float3"></path><path d="M168.1097132014114 176.00522273059198L154.92002389963753-12.616122003799518-20.51163153298009 189.19491203236586z" fill="rgba(17, 166, 224, 1)" class="triangle-float3"></path><path d="M231.64316808133847 140.09181567358888L112.32160606588207 125.44097007527239 97.67076046756557 244.7625320907288 216.99232248302198 259.4133776890453z" fill="rgba(17, 166, 224, 1)" class="triangle-float2"></path><path d="M342.72349197426126 854.1010855118293L562.86370991021 921.4047043578449 410.0271108202769 633.9608675758805z" fill="rgba(17, 166, 224, 1)" class="triangle-float2"></path><path d="M256.20641865061157 696.2930324533481L37.99786444584362 669.2892735930477 109.99862361122314 847.4974060392715z" fill="rgba(17, 166, 224, 1)" class="triangle-float3"></path><path d="M783.6976961578973 209.6055059520109L659.8741281613889 146.51424681058597 627.1490234475057 363.7952283760611z" fill="rgba(17, 166, 224, 1)" class="triangle-float1"></path><path d="M-106.0855904127069 136.2308110270019L18.565139594659783 240.82519260216196 123.15952116981985 116.17446259479527-1.4912088375468358 11.580081019635202z" fill="rgba(17, 166, 224, 1)" class="triangle-float3"></path><path d="M86.46191714956933 168.5703576119648L114.05140858110911-5.622835703033871-60.14178473388955-33.212327134573655-87.73127616542934 140.980866180425z" fill="rgba(17, 166, 224, 1)" class="triangle-float3"></path><path d="M634.4315569426619 879.933035612208L605.8900571126471 676.8497118902874 402.80673339072666 705.3912117203022 431.3482332207414 908.4745354422228z" fill="rgba(17, 166, 224, 1)" class="triangle-float2"></path><path d="M-73.49051653240406 574.9330144414809L64.6091723111353 739.5138147569113 91.09028378302636 436.8333255979415z" fill="rgba(17, 166, 224, 1)" class="triangle-float2"></path><path d="M210.48740900457653 492.4774799722169L50.87143253933448 641.321786014649 199.71573858176663 800.937762479891 359.3317150470087 652.0934564374589z" fill="rgba(17, 166, 224, 1)" class="triangle-float2"></path><path d="M214.67954768587333 394.3260351724492L243.6209309142689 158.61738405562247 7.912279797442153 129.67600082722691-21.029103430953427 365.38465194405364z" fill="rgba(17, 166, 224, 1)" class="triangle-float2"></path></g><defs><mask id="SvgjsMask1056"><rect width="800" height="800" fill="#ffffff"></rect></mask></defs></svg>