<svg xmlns="http://www.w3.org/2000/svg" version="1.1" xmlns:xlink="http://www.w3.org/1999/xlink" xmlns:svgjs="http://svgjs.com/svgjs" width="1920" height="785" preserveAspectRatio="none" viewBox="0 0 1920 785"><g mask="url(&quot;#SvgjsMask1022&quot;)" fill="none"><rect width="1920" height="785" x="0" y="0" fill="rgba(17, 166, 224, 1)"></rect><path d="M1920 0L1118 0L1920 137.1z" fill="rgba(255, 255, 255, .1)"></path><path d="M1118 0L1920 137.1L1920 140.23999999999998L741.99 0z" fill="rgba(255, 255, 255, .075)"></path><path d="M741.99 0L1920 140.23999999999998L1920 215.67999999999998L595.86 0z" fill="rgba(255, 255, 255, .05)"></path><path d="M595.8600000000001 0L1920 215.67999999999998L1920 304.05999999999995L500.1400000000001 0z" fill="rgba(255, 255, 255, .025)"></path><path d="M0 785L351.61 785L0 510.52z" fill="rgba(0, 0, 0, .1)"></path><path d="M0 510.52L351.61 785L768.6800000000001 785L0 388.53z" fill="rgba(0, 0, 0, .075)"></path><path d="M0 388.53L768.6800000000001 785L1174.77 785L0 240.64z" fill="rgba(0, 0, 0, .05)"></path><path d="M0 240.64L1174.77 785L1443.36 785L0 136.95999999999998z" fill="rgba(0, 0, 0, .025)"></path></g><defs><mask id="SvgjsMask1022"><rect width="1920" height="785" fill="#ffffff"></rect></mask></defs></svg>