<svg xmlns="http://www.w3.org/2000/svg" version="1.1" xmlns:xlink="http://www.w3.org/1999/xlink" xmlns:svgjs="http://svgjs.com/svgjs" width="1920" height="672" preserveAspectRatio="none" viewBox="0 0 1920 672"><g mask="url(&quot;#SvgjsMask1017&quot;)" fill="none"><rect width="1920" height="672" x="0" y="0" fill="rgba(18, 172, 233, 1)"></rect><path d="M3.6601526276381815 74.91082225360128L148.31742656001262 97.82228362425352 171.22888793066485-46.83499030812092 26.57161399829041-69.74645167877316z" fill="rgba(28, 83, 142, 0.4)" class="triangle-float3"></path><path d="M829.982864608848 292.4070862100094L727.0712631416229 391.7876645443279 826.4518414759414 494.699266011553 929.3634429431664 395.3186876772345z" fill="rgba(28, 83, 142, 0.4)" class="triangle-float1"></path><path d="M1859.478960265402 667.7800496969038L1915.575932463471 522.0576882912216 1780.4073001731563 541.0544006988831z" fill="rgba(28, 83, 142, 0.4)" class="triangle-float3"></path><path d="M152.35927951239483 225.45220437112354L-8.668579987163127 248.08319415553086 13.96240979724422 409.1110536550889 174.99026929680218 386.48006387068153z" fill="rgba(28, 83, 142, 0.4)" class="triangle-float1"></path><path d="M1439.1994801937492 363.5879308329197L1315.8283242440168 205.6800521210724 1281.2916014819018 486.9590867826521z" fill="rgba(28, 83, 142, 0.4)" class="triangle-float3"></path><path d="M1968.4383938143833 141.17178988791898L1984.1139774304133 42.20005008879366 1827.8185759237103 68.1725445643112z" fill="rgba(28, 83, 142, 0.4)" class="triangle-float2"></path><path d="M1042.126236824277 361.02023637642566L899.2881310122101 232.40822822339788 770.6761228591823 375.2463340354647 913.5142286712492 503.8583421884925z" fill="rgba(28, 83, 142, 0.4)" class="triangle-float1"></path><path d="M143.64018082355472 159.6908329828541L266.8207447713871 7.575504823291823-8.475147336007552 36.51026903502168z" fill="rgba(28, 83, 142, 0.4)" class="triangle-float1"></path><path d="M1631.0373066076027 158.70867649601195L1744.0689704347424 298.5634711956085 1802.9540034389502 152.8179001439089z" fill="rgba(28, 83, 142, 0.4)" class="triangle-float2"></path><path d="M386.7662946832235 138.02301130490568L498.6181983563027 297.7640845859246 658.3592716373216 185.91218091284537 546.5073679642423 26.1711076318265z" fill="rgba(28, 83, 142, 0.4)" class="triangle-float1"></path><path d="M1380.6783443392442 410.41414594756446L1208.279460763575 380.01557132915656 1177.880886145167 552.4144549048258 1350.2797697208362 582.8130295232337z" fill="rgba(28, 83, 142, 0.4)" class="triangle-float2"></path><path d="M983.6065900484238 276.0788429737662L856.6676966782705 386.42513949350854 1093.9528865681662 403.0177363439194z" fill="rgba(28, 83, 142, 0.4)" class="triangle-float3"></path><path d="M896.9496960087664 71.79930129483236L1002.873227643953 110.35231391839463 935.5027086323287-34.12423034035419z" fill="rgba(28, 83, 142, 0.4)" class="triangle-float3"></path><path d="M450.17349904303-50.80574602724637L356.505725208693 111.43159728569607 518.7430685216355 205.09937112003308 612.4108423559725 42.862027807090655z" fill="rgba(28, 83, 142, 0.4)" class="triangle-float1"></path><path d="M1058.756582645107 185.40377669341683L1178.6045609407988 129.5177465997416 1122.7185308471237 9.66976830404974 1002.8705525514318 65.55579839772498z" fill="rgba(28, 83, 142, 0.4)" class="triangle-float2"></path><path d="M1484.9250594402868 88.87234243159567L1358.2770918537356 180.70319405315874 1482.215370370164 238.49656246391652z" fill="rgba(28, 83, 142, 0.4)" class="triangle-float2"></path><path d="M777.3411134779269 88.68655338667092L757.1043629791354-55.30540839187303 613.1124012005915-35.06865789308158 633.3491516993829 108.92330388546239z" fill="rgba(28, 83, 142, 0.4)" class="triangle-float2"></path><path d="M225.86943432316082 203.72036483622824L103.05967858766822 274.62461036922707 173.96392412066706 397.43436610471974 296.7736798561597 326.53012057172083z" fill="rgba(28, 83, 142, 0.4)" class="triangle-float2"></path></g><defs><mask id="SvgjsMask1017"><rect width="1920" height="672" fill="#ffffff"></rect></mask></defs></svg>