<svg xmlns="http://www.w3.org/2000/svg" version="1.1" xmlns:xlink="http://www.w3.org/1999/xlink" xmlns:svgjs="http://svgjs.com/svgjs" width="1000" height="1005" preserveAspectRatio="none" viewBox="0 0 1000 1005"><g mask="url(&quot;#SvgjsMask1031&quot;)" fill="none"><path d="M51.66026406361298-69.70414149933059L-22.64976282967355 105.35931116164517 277.10042960843333 129.29262517108708z" fill="rgba(17, 166, 224, 1)" class="triangle-float2"></path><path d="M34.29027598540404 688.5077550649208L-79.93097128153983 806.7873190888095 154.59899838776505 918.979407977281z" fill="rgba(17, 166, 224, 1)" class="triangle-float1"></path><path d="M971.1611740368064 950.4939896430068L1070.152499136047 914.4640938563143 966.611992906388 783.9920541007996z" fill="rgba(17, 166, 224, 1)" class="triangle-float1"></path><path d="M746.3168039038767 327.2442569524607L545.6536078859801 404.2716410589931 622.6809919925125 604.9348370768896 823.3441880104091 527.9074529703573z" fill="rgba(17, 166, 224, 1)" class="triangle-float2"></path><path d="M878.2692796694705 544.8181373551137L710.2723096331886 473.50765437519243 638.9618266532674 641.5046244114743 806.9587966895493 712.8151073913956z" fill="rgba(17, 166, 224, 1)" class="triangle-float2"></path><path d="M229.51780447220509 116.68293862875117L418.89652443729943 327.0093150643181 629.2229008728664 137.6305950992238 439.84418090777206-72.69578133634317z" fill="rgba(17, 166, 224, 1)" class="triangle-float1"></path><path d="M332.6490441376695 681.4598045189871L606.2540098018455 592.8483526529106 422.38843380146716 421.3909292111671z" fill="rgba(17, 166, 224, 1)" class="triangle-float2"></path><path d="M651.9377742829075 15.600024243113625L394.47383537348264-11.460526164450284 367.4132849659187 246.0034127449746 624.8772238753436 273.0639631525385z" fill="rgba(17, 166, 224, 1)" class="triangle-float1"></path><path d="M629.809058226941-56.029746013422226L585.6001922895955 223.0940482605591 908.9328525009223-11.820880076076683z" fill="rgba(17, 166, 224, 1)" class="triangle-float2"></path><path d="M843.1321979778191 729.6760481880414L674.0181015857788 674.7275473596372 676.1523985391927 955.8729423618997z" fill="rgba(17, 166, 224, 1)" class="triangle-float2"></path></g><defs><mask id="SvgjsMask1031"><rect width="1000" height="1005" fill="#ffffff"></rect></mask></defs></svg>