<svg xmlns="http://www.w3.org/2000/svg" version="1.1" xmlns:xlink="http://www.w3.org/1999/xlink" xmlns:svgjs="http://svgjs.com/svgjs" width="960" height="720" preserveAspectRatio="none" viewBox="0 0 960 720"><g mask="url(&quot;#SvgjsMask1004&quot;)" fill="none"><path d="M-39.01 441.67L-39.01 441.67" stroke="rgba(16, 110, 234, 1)" stroke-width="1.5"></path><path d="M-39.01 441.67L-39.67 512.48" stroke="rgba(16, 110, 234, 1)" stroke-width="1.5"></path><path d="M-39.01 441.67L58.68 529.09" stroke="rgba(16, 110, 234, 1)" stroke-width="1.5"></path><path d="M-39.67 512.48L-39.67 512.48" stroke="rgba(16, 110, 234, 1)" stroke-width="1.5"></path><path d="M-39.67 512.48L58.68 529.09" stroke="rgba(16, 110, 234, 1)" stroke-width="1.5"></path><path d="M-39.67 512.48L-74.29 658.3" stroke="rgba(16, 110, 234, 1)" stroke-width="1.5"></path><path d="M-39.67 512.48L178.25 554.12" stroke="rgba(16, 110, 234, 1)" stroke-width="1.5"></path><path d="M-74.29 658.3L-74.29 658.3" stroke="rgba(16, 110, 234, 1)" stroke-width="1.5"></path><path d="M-74.29 658.3L-89.74 751.68" stroke="rgba(16, 110, 234, 1)" stroke-width="1.5"></path><path d="M-74.29 658.3L41.28 784.73" stroke="rgba(16, 110, 234, 1)" stroke-width="1.5"></path><path d="M-74.29 658.3L58.68 529.09" stroke="rgba(16, 110, 234, 1)" stroke-width="1.5"></path><path d="M-74.29 658.3L-39.01 441.67" stroke="rgba(16, 110, 234, 1)" stroke-width="1.5"></path><path d="M-74.29 658.3L161.15 686.42" stroke="rgba(16, 110, 234, 1)" stroke-width="1.5"></path><path d="M-89.74 751.68L-89.74 751.68" stroke="rgba(16, 110, 234, 1)" stroke-width="1.5"></path><path d="M-89.74 751.68L41.28 784.73" stroke="rgba(16, 110, 234, 1)" stroke-width="1.5"></path><path d="M58.68 529.09L58.68 529.09" stroke="rgba(16, 110, 234, 1)" stroke-width="1.5"></path><path d="M58.68 529.09L178.25 554.12" stroke="rgba(16, 110, 234, 1)" stroke-width="1.5"></path><path d="M41.28 784.73L41.28 784.73" stroke="rgba(16, 110, 234, 1)" stroke-width="1.5"></path><path d="M41.28 784.73L161.15 686.42" stroke="rgba(16, 110, 234, 1)" stroke-width="1.5"></path><path d="M41.28 784.73L203.89 775.48" stroke="rgba(16, 110, 234, 1)" stroke-width="1.5"></path><path d="M178.25 554.12L178.25 554.12" stroke="rgba(16, 110, 234, 1)" stroke-width="1.5"></path><path d="M178.25 554.12L274.28 639.51" stroke="rgba(16, 110, 234, 1)" stroke-width="1.5"></path><path d="M178.25 554.12L161.15 686.42" stroke="rgba(16, 110, 234, 1)" stroke-width="1.5"></path><path d="M178.25 554.12L315.36 550.83" stroke="rgba(16, 110, 234, 1)" stroke-width="1.5"></path><path d="M178.25 554.12L299.52 417.7" stroke="rgba(16, 110, 234, 1)" stroke-width="1.5"></path><path d="M178.25 554.12L392.91 559.83" stroke="rgba(16, 110, 234, 1)" stroke-width="1.5"></path><path d="M161.15 686.42L161.15 686.42" stroke="rgba(16, 110, 234, 1)" stroke-width="1.5"></path><path d="M161.15 686.42L203.89 775.48" stroke="rgba(16, 110, 234, 1)" stroke-width="1.5"></path><path d="M161.15 686.42L274.28 639.51" stroke="rgba(16, 110, 234, 1)" stroke-width="1.5"></path><path d="M161.15 686.42L289.35 754.38" stroke="rgba(16, 110, 234, 1)" stroke-width="1.5"></path><path d="M161.15 686.42L58.68 529.09" stroke="rgba(16, 110, 234, 1)" stroke-width="1.5"></path><path d="M203.89 775.48L203.89 775.48" stroke="rgba(16, 110, 234, 1)" stroke-width="1.5"></path><path d="M203.89 775.48L289.35 754.38" stroke="rgba(16, 110, 234, 1)" stroke-width="1.5"></path><path d="M203.89 775.48L274.28 639.51" stroke="rgba(16, 110, 234, 1)" stroke-width="1.5"></path><path d="M299.52 417.7L299.52 417.7" stroke="rgba(16, 110, 234, 1)" stroke-width="1.5"></path><path d="M299.52 417.7L390.95 409.33" stroke="rgba(16, 110, 234, 1)" stroke-width="1.5"></path><path d="M299.52 417.7L315.36 550.83" stroke="rgba(16, 110, 234, 1)" stroke-width="1.5"></path><path d="M315.36 550.83L315.36 550.83" stroke="rgba(16, 110, 234, 1)" stroke-width="1.5"></path><path d="M315.36 550.83L392.91 559.83" stroke="rgba(16, 110, 234, 1)" stroke-width="1.5"></path><path d="M315.36 550.83L274.28 639.51" stroke="rgba(16, 110, 234, 1)" stroke-width="1.5"></path><path d="M315.36 550.83L390.19 645.37" stroke="rgba(16, 110, 234, 1)" stroke-width="1.5"></path><path d="M274.28 639.51L274.28 639.51" stroke="rgba(16, 110, 234, 1)" stroke-width="1.5"></path><path d="M274.28 639.51L289.35 754.38" stroke="rgba(16, 110, 234, 1)" stroke-width="1.5"></path><path d="M274.28 639.51L390.19 645.37" stroke="rgba(16, 110, 234, 1)" stroke-width="1.5"></path><path d="M274.28 639.51L392.91 559.83" stroke="rgba(16, 110, 234, 1)" stroke-width="1.5"></path><path d="M289.35 754.38L289.35 754.38" stroke="rgba(16, 110, 234, 1)" stroke-width="1.5"></path><path d="M438.2 300.7L438.2 300.7" stroke="rgba(16, 110, 234, 1)" stroke-width="1.5"></path><path d="M438.2 300.7L514.33 308.17" stroke="rgba(16, 110, 234, 1)" stroke-width="1.5"></path><path d="M438.2 300.7L390.95 409.33" stroke="rgba(16, 110, 234, 1)" stroke-width="1.5"></path><path d="M438.2 300.7L545.1 169.21" stroke="rgba(16, 110, 234, 1)" stroke-width="1.5"></path><path d="M438.2 300.7L525.04 449.2" stroke="rgba(16, 110, 234, 1)" stroke-width="1.5"></path><path d="M438.2 300.7L299.52 417.7" stroke="rgba(16, 110, 234, 1)" stroke-width="1.5"></path><path d="M438.2 300.7L631.85 298.91" stroke="rgba(16, 110, 234, 1)" stroke-width="1.5"></path><path d="M390.95 409.33L390.95 409.33" stroke="rgba(16, 110, 234, 1)" stroke-width="1.5"></path><path d="M390.95 409.33L525.04 449.2" stroke="rgba(16, 110, 234, 1)" stroke-width="1.5"></path><path d="M392.91 559.83L392.91 559.83" stroke="rgba(16, 110, 234, 1)" stroke-width="1.5"></path><path d="M392.91 559.83L390.19 645.37" stroke="rgba(16, 110, 234, 1)" stroke-width="1.5"></path><path d="M390.19 645.37L390.19 645.37" stroke="rgba(16, 110, 234, 1)" stroke-width="1.5"></path><path d="M390.19 645.37L289.35 754.38" stroke="rgba(16, 110, 234, 1)" stroke-width="1.5"></path><path d="M390.19 645.37L551.98 653.85" stroke="rgba(16, 110, 234, 1)" stroke-width="1.5"></path><path d="M418.41 807L418.41 807" stroke="rgba(16, 110, 234, 1)" stroke-width="1.5"></path><path d="M418.41 807L289.35 754.38" stroke="rgba(16, 110, 234, 1)" stroke-width="1.5"></path><path d="M418.41 807L557.8 767.47" stroke="rgba(16, 110, 234, 1)" stroke-width="1.5"></path><path d="M418.41 807L390.19 645.37" stroke="rgba(16, 110, 234, 1)" stroke-width="1.5"></path><path d="M545.1 169.21L545.1 169.21" stroke="rgba(16, 110, 234, 1)" stroke-width="1.5"></path><path d="M545.1 169.21L647.04 159.55" stroke="rgba(16, 110, 234, 1)" stroke-width="1.5"></path><path d="M545.1 169.21L514.33 308.17" stroke="rgba(16, 110, 234, 1)" stroke-width="1.5"></path><path d="M545.1 169.21L631.85 298.91" stroke="rgba(16, 110, 234, 1)" stroke-width="1.5"></path><path d="M514.33 308.17L514.33 308.17" stroke="rgba(16, 110, 234, 1)" stroke-width="1.5"></path><path d="M514.33 308.17L631.85 298.91" stroke="rgba(16, 110, 234, 1)" stroke-width="1.5"></path><path d="M514.33 308.17L525.04 449.2" stroke="rgba(16, 110, 234, 1)" stroke-width="1.5"></path><path d="M525.04 449.2L525.04 449.2" stroke="rgba(16, 110, 234, 1)" stroke-width="1.5"></path><path d="M525.04 449.2L632.55 443.25" stroke="rgba(16, 110, 234, 1)" stroke-width="1.5"></path><path d="M525.04 449.2L567.23 569.69" stroke="rgba(16, 110, 234, 1)" stroke-width="1.5"></path><path d="M525.04 449.2L392.91 559.83" stroke="rgba(16, 110, 234, 1)" stroke-width="1.5"></path><path d="M567.23 569.69L567.23 569.69" stroke="rgba(16, 110, 234, 1)" stroke-width="1.5"></path><path d="M567.23 569.69L551.98 653.85" stroke="rgba(16, 110, 234, 1)" stroke-width="1.5"></path><path d="M567.23 569.69L671.95 568.65" stroke="rgba(16, 110, 234, 1)" stroke-width="1.5"></path><path d="M551.98 653.85L551.98 653.85" stroke="rgba(16, 110, 234, 1)" stroke-width="1.5"></path><path d="M551.98 653.85L557.8 767.47" stroke="rgba(16, 110, 234, 1)" stroke-width="1.5"></path><path d="M551.98 653.85L689.11 648.45" stroke="rgba(16, 110, 234, 1)" stroke-width="1.5"></path><path d="M557.8 767.47L557.8 767.47" stroke="rgba(16, 110, 234, 1)" stroke-width="1.5"></path><path d="M557.8 767.47L648.28 791.3" stroke="rgba(16, 110, 234, 1)" stroke-width="1.5"></path><path d="M557.8 767.47L689.11 648.45" stroke="rgba(16, 110, 234, 1)" stroke-width="1.5"></path><path d="M656 -62.37L656 -62.37" stroke="rgba(16, 110, 234, 1)" stroke-width="1.5"></path><path d="M656 -62.37L751.23 -39.14" stroke="rgba(16, 110, 234, 1)" stroke-width="1.5"></path><path d="M656 -62.37L687.57 66.15" stroke="rgba(16, 110, 234, 1)" stroke-width="1.5"></path><path d="M656 -62.37L772.13 46.16" stroke="rgba(16, 110, 234, 1)" stroke-width="1.5"></path><path d="M656 -62.37L647.04 159.55" stroke="rgba(16, 110, 234, 1)" stroke-width="1.5"></path><path d="M656 -62.37L545.1 169.21" stroke="rgba(16, 110, 234, 1)" stroke-width="1.5"></path><path d="M656 -62.37L793.1 201.49" stroke="rgba(16, 110, 234, 1)" stroke-width="1.5"></path><path d="M687.57 66.15L687.57 66.15" stroke="rgba(16, 110, 234, 1)" stroke-width="1.5"></path><path d="M687.57 66.15L772.13 46.16" stroke="rgba(16, 110, 234, 1)" stroke-width="1.5"></path><path d="M687.57 66.15L647.04 159.55" stroke="rgba(16, 110, 234, 1)" stroke-width="1.5"></path><path d="M687.57 66.15L751.23 -39.14" stroke="rgba(16, 110, 234, 1)" stroke-width="1.5"></path><path d="M687.57 66.15L793.1 201.49" stroke="rgba(16, 110, 234, 1)" stroke-width="1.5"></path><path d="M687.57 66.15L545.1 169.21" stroke="rgba(16, 110, 234, 1)" stroke-width="1.5"></path><path d="M647.04 159.55L647.04 159.55" stroke="rgba(16, 110, 234, 1)" stroke-width="1.5"></path><path d="M647.04 159.55L631.85 298.91" stroke="rgba(16, 110, 234, 1)" stroke-width="1.5"></path><path d="M647.04 159.55L793.1 201.49" stroke="rgba(16, 110, 234, 1)" stroke-width="1.5"></path><path d="M631.85 298.91L631.85 298.91" stroke="rgba(16, 110, 234, 1)" stroke-width="1.5"></path><path d="M631.85 298.91L632.55 443.25" stroke="rgba(16, 110, 234, 1)" stroke-width="1.5"></path><path d="M632.55 443.25L632.55 443.25" stroke="rgba(16, 110, 234, 1)" stroke-width="1.5"></path><path d="M632.55 443.25L751.58 430" stroke="rgba(16, 110, 234, 1)" stroke-width="1.5"></path><path d="M632.55 443.25L671.95 568.65" stroke="rgba(16, 110, 234, 1)" stroke-width="1.5"></path><path d="M671.95 568.65L671.95 568.65" stroke="rgba(16, 110, 234, 1)" stroke-width="1.5"></path><path d="M671.95 568.65L689.11 648.45" stroke="rgba(16, 110, 234, 1)" stroke-width="1.5"></path><path d="M671.95 568.65L750.85 524.57" stroke="rgba(16, 110, 234, 1)" stroke-width="1.5"></path><path d="M689.11 648.45L689.11 648.45" stroke="rgba(16, 110, 234, 1)" stroke-width="1.5"></path><path d="M689.11 648.45L788.36 636.06" stroke="rgba(16, 110, 234, 1)" stroke-width="1.5"></path><path d="M648.28 791.3L648.28 791.3" stroke="rgba(16, 110, 234, 1)" stroke-width="1.5"></path><path d="M648.28 791.3L783.51 758.24" stroke="rgba(16, 110, 234, 1)" stroke-width="1.5"></path><path d="M751.23 -39.14L751.23 -39.14" stroke="rgba(16, 110, 234, 1)" stroke-width="1.5"></path><path d="M751.23 -39.14L772.13 46.16" stroke="rgba(16, 110, 234, 1)" stroke-width="1.5"></path><path d="M751.23 -39.14L929.76 88.97" stroke="rgba(16, 110, 234, 1)" stroke-width="1.5"></path><path d="M772.13 46.16L772.13 46.16" stroke="rgba(16, 110, 234, 1)" stroke-width="1.5"></path><path d="M793.1 201.49L793.1 201.49" stroke="rgba(16, 110, 234, 1)" stroke-width="1.5"></path><path d="M793.1 201.49L784.62 275.99" stroke="rgba(16, 110, 234, 1)" stroke-width="1.5"></path><path d="M793.1 201.49L900.76 186.11" stroke="rgba(16, 110, 234, 1)" stroke-width="1.5"></path><path d="M793.1 201.49L772.13 46.16" stroke="rgba(16, 110, 234, 1)" stroke-width="1.5"></path><path d="M793.1 201.49L905.03 324.01" stroke="rgba(16, 110, 234, 1)" stroke-width="1.5"></path><path d="M784.62 275.99L784.62 275.99" stroke="rgba(16, 110, 234, 1)" stroke-width="1.5"></path><path d="M784.62 275.99L905.03 324.01" stroke="rgba(16, 110, 234, 1)" stroke-width="1.5"></path><path d="M784.62 275.99L900.76 186.11" stroke="rgba(16, 110, 234, 1)" stroke-width="1.5"></path><path d="M784.62 275.99L631.85 298.91" stroke="rgba(16, 110, 234, 1)" stroke-width="1.5"></path><path d="M784.62 275.99L751.58 430" stroke="rgba(16, 110, 234, 1)" stroke-width="1.5"></path><path d="M784.62 275.99L647.04 159.55" stroke="rgba(16, 110, 234, 1)" stroke-width="1.5"></path><path d="M751.58 430L751.58 430" stroke="rgba(16, 110, 234, 1)" stroke-width="1.5"></path><path d="M751.58 430L750.85 524.57" stroke="rgba(16, 110, 234, 1)" stroke-width="1.5"></path><path d="M750.85 524.57L750.85 524.57" stroke="rgba(16, 110, 234, 1)" stroke-width="1.5"></path><path d="M750.85 524.57L788.36 636.06" stroke="rgba(16, 110, 234, 1)" stroke-width="1.5"></path><path d="M750.85 524.57L689.11 648.45" stroke="rgba(16, 110, 234, 1)" stroke-width="1.5"></path><path d="M750.85 524.57L632.55 443.25" stroke="rgba(16, 110, 234, 1)" stroke-width="1.5"></path><path d="M788.36 636.06L788.36 636.06" stroke="rgba(16, 110, 234, 1)" stroke-width="1.5"></path><path d="M788.36 636.06L783.51 758.24" stroke="rgba(16, 110, 234, 1)" stroke-width="1.5"></path><path d="M788.36 636.06L671.95 568.65" stroke="rgba(16, 110, 234, 1)" stroke-width="1.5"></path><path d="M783.51 758.24L783.51 758.24" stroke="rgba(16, 110, 234, 1)" stroke-width="1.5"></path><path d="M783.51 758.24L890.97 808.86" stroke="rgba(16, 110, 234, 1)" stroke-width="1.5"></path><path d="M783.51 758.24L689.11 648.45" stroke="rgba(16, 110, 234, 1)" stroke-width="1.5"></path><path d="M929.76 88.97L929.76 88.97" stroke="rgba(16, 110, 234, 1)" stroke-width="1.5"></path><path d="M929.76 88.97L900.76 186.11" stroke="rgba(16, 110, 234, 1)" stroke-width="1.5"></path><path d="M929.76 88.97L995.49 175.92" stroke="rgba(16, 110, 234, 1)" stroke-width="1.5"></path><path d="M929.76 88.97L1004.56 -47.55" stroke="rgba(16, 110, 234, 1)" stroke-width="1.5"></path><path d="M900.76 186.11L900.76 186.11" stroke="rgba(16, 110, 234, 1)" stroke-width="1.5"></path><path d="M900.76 186.11L995.49 175.92" stroke="rgba(16, 110, 234, 1)" stroke-width="1.5"></path><path d="M905.03 324.01L905.03 324.01" stroke="rgba(16, 110, 234, 1)" stroke-width="1.5"></path><path d="M905.03 324.01L996.81 317.63" stroke="rgba(16, 110, 234, 1)" stroke-width="1.5"></path><path d="M907.82 527.72L907.82 527.72" stroke="rgba(16, 110, 234, 1)" stroke-width="1.5"></path><path d="M907.82 527.72L1014.77 568.93" stroke="rgba(16, 110, 234, 1)" stroke-width="1.5"></path><path d="M907.82 527.72L927.56 643.87" stroke="rgba(16, 110, 234, 1)" stroke-width="1.5"></path><path d="M927.56 643.87L927.56 643.87" stroke="rgba(16, 110, 234, 1)" stroke-width="1.5"></path><path d="M927.56 643.87L1022.23 673.06" stroke="rgba(16, 110, 234, 1)" stroke-width="1.5"></path><path d="M927.56 643.87L1014.77 568.93" stroke="rgba(16, 110, 234, 1)" stroke-width="1.5"></path><path d="M890.97 808.86L890.97 808.86" stroke="rgba(16, 110, 234, 1)" stroke-width="1.5"></path><path d="M890.97 808.86L1030.32 809.41" stroke="rgba(16, 110, 234, 1)" stroke-width="1.5"></path><path d="M890.97 808.86L927.56 643.87" stroke="rgba(16, 110, 234, 1)" stroke-width="1.5"></path><path d="M890.97 808.86L1022.23 673.06" stroke="rgba(16, 110, 234, 1)" stroke-width="1.5"></path><path d="M1004.56 -47.55L1004.56 -47.55" stroke="rgba(16, 110, 234, 1)" stroke-width="1.5"></path><path d="M1004.56 -47.55L995.49 175.92" stroke="rgba(16, 110, 234, 1)" stroke-width="1.5"></path><path d="M1004.56 -47.55L772.13 46.16" stroke="rgba(16, 110, 234, 1)" stroke-width="1.5"></path><path d="M1004.56 -47.55L751.23 -39.14" stroke="rgba(16, 110, 234, 1)" stroke-width="1.5"></path><path d="M995.49 175.92L995.49 175.92" stroke="rgba(16, 110, 234, 1)" stroke-width="1.5"></path><path d="M995.49 175.92L996.81 317.63" stroke="rgba(16, 110, 234, 1)" stroke-width="1.5"></path><path d="M995.49 175.92L905.03 324.01" stroke="rgba(16, 110, 234, 1)" stroke-width="1.5"></path><path d="M996.81 317.63L996.81 317.63" stroke="rgba(16, 110, 234, 1)" stroke-width="1.5"></path><path d="M996.81 317.63L1044.61 435.78" stroke="rgba(16, 110, 234, 1)" stroke-width="1.5"></path><path d="M996.81 317.63L900.76 186.11" stroke="rgba(16, 110, 234, 1)" stroke-width="1.5"></path><path d="M996.81 317.63L784.62 275.99" stroke="rgba(16, 110, 234, 1)" stroke-width="1.5"></path><path d="M1044.61 435.78L1044.61 435.78" stroke="rgba(16, 110, 234, 1)" stroke-width="1.5"></path><path d="M1044.61 435.78L1014.77 568.93" stroke="rgba(16, 110, 234, 1)" stroke-width="1.5"></path><path d="M1014.77 568.93L1014.77 568.93" stroke="rgba(16, 110, 234, 1)" stroke-width="1.5"></path><path d="M1014.77 568.93L1022.23 673.06" stroke="rgba(16, 110, 234, 1)" stroke-width="1.5"></path><path d="M1014.77 568.93L788.36 636.06" stroke="rgba(16, 110, 234, 1)" stroke-width="1.5"></path><path d="M1022.23 673.06L1022.23 673.06" stroke="rgba(16, 110, 234, 1)" stroke-width="1.5"></path><path d="M1030.32 809.41L1030.32 809.41" stroke="rgba(16, 110, 234, 1)" stroke-width="1.5"></path><path d="M1030.32 809.41L1022.23 673.06" stroke="rgba(16, 110, 234, 1)" stroke-width="1.5"></path><path d="M1030.32 809.41L927.56 643.87" stroke="rgba(16, 110, 234, 1)" stroke-width="1.5"></path><circle r="5" cx="-39.01" cy="441.67" fill="rgba(16, 110, 234, 1)"></circle><circle r="5" cx="-39.67" cy="512.48" fill="rgba(16, 110, 234, 1)"></circle><circle r="5" cx="-74.29" cy="658.3" fill="rgba(16, 110, 234, 1)"></circle><circle r="5" cx="-89.74" cy="751.68" fill="rgba(16, 110, 234, 1)"></circle><circle r="5" cx="58.68" cy="529.09" fill="rgba(16, 110, 234, 1)"></circle><circle r="5" cx="41.28" cy="784.73" fill="rgba(16, 110, 234, 1)"></circle><circle r="5" cx="178.25" cy="554.12" fill="rgba(16, 110, 234, 1)"></circle><circle r="5" cx="161.15" cy="686.42" fill="rgba(16, 110, 234, 1)"></circle><circle r="5" cx="203.89" cy="775.48" fill="rgba(16, 110, 234, 1)"></circle><circle r="5" cx="299.52" cy="417.7" fill="rgba(16, 110, 234, 1)"></circle><circle r="5" cx="315.36" cy="550.83" fill="rgba(16, 110, 234, 1)"></circle><circle r="5" cx="274.28" cy="639.51" fill="rgba(16, 110, 234, 1)"></circle><circle r="5" cx="289.35" cy="754.38" fill="rgba(16, 110, 234, 1)"></circle><circle r="5" cx="438.2" cy="300.7" fill="rgba(16, 110, 234, 1)"></circle><circle r="5" cx="390.95" cy="409.33" fill="rgba(16, 110, 234, 1)"></circle><circle r="5" cx="392.91" cy="559.83" fill="rgba(16, 110, 234, 1)"></circle><circle r="5" cx="390.19" cy="645.37" fill="rgba(16, 110, 234, 1)"></circle><circle r="5" cx="418.41" cy="807" fill="rgba(16, 110, 234, 1)"></circle><circle r="5" cx="545.1" cy="169.21" fill="rgba(16, 110, 234, 1)"></circle><circle r="5" cx="514.33" cy="308.17" fill="rgba(16, 110, 234, 1)"></circle><circle r="5" cx="525.04" cy="449.2" fill="rgba(16, 110, 234, 1)"></circle><circle r="5" cx="567.23" cy="569.69" fill="rgba(16, 110, 234, 1)"></circle><circle r="5" cx="551.98" cy="653.85" fill="rgba(16, 110, 234, 1)"></circle><circle r="5" cx="557.8" cy="767.47" fill="rgba(16, 110, 234, 1)"></circle><circle r="5" cx="656" cy="-62.37" fill="rgba(16, 110, 234, 1)"></circle><circle r="5" cx="687.57" cy="66.15" fill="rgba(16, 110, 234, 1)"></circle><circle r="5" cx="647.04" cy="159.55" fill="rgba(16, 110, 234, 1)"></circle><circle r="5" cx="631.85" cy="298.91" fill="rgba(16, 110, 234, 1)"></circle><circle r="5" cx="632.55" cy="443.25" fill="rgba(16, 110, 234, 1)"></circle><circle r="5" cx="671.95" cy="568.65" fill="rgba(16, 110, 234, 1)"></circle><circle r="5" cx="689.11" cy="648.45" fill="rgba(16, 110, 234, 1)"></circle><circle r="5" cx="648.28" cy="791.3" fill="rgba(16, 110, 234, 1)"></circle><circle r="5" cx="751.23" cy="-39.14" fill="rgba(16, 110, 234, 1)"></circle><circle r="5" cx="772.13" cy="46.16" fill="rgba(16, 110, 234, 1)"></circle><circle r="5" cx="793.1" cy="201.49" fill="rgba(16, 110, 234, 1)"></circle><circle r="5" cx="784.62" cy="275.99" fill="rgba(16, 110, 234, 1)"></circle><circle r="5" cx="751.58" cy="430" fill="rgba(16, 110, 234, 1)"></circle><circle r="5" cx="750.85" cy="524.57" fill="rgba(16, 110, 234, 1)"></circle><circle r="5" cx="788.36" cy="636.06" fill="rgba(16, 110, 234, 1)"></circle><circle r="5" cx="783.51" cy="758.24" fill="rgba(16, 110, 234, 1)"></circle><circle r="5" cx="929.76" cy="88.97" fill="rgba(16, 110, 234, 1)"></circle><circle r="5" cx="900.76" cy="186.11" fill="rgba(16, 110, 234, 1)"></circle><circle r="5" cx="905.03" cy="324.01" fill="rgba(16, 110, 234, 1)"></circle><circle r="5" cx="907.82" cy="527.72" fill="rgba(16, 110, 234, 1)"></circle><circle r="5" cx="927.56" cy="643.87" fill="rgba(16, 110, 234, 1)"></circle><circle r="5" cx="890.97" cy="808.86" fill="rgba(16, 110, 234, 1)"></circle><circle r="5" cx="1004.56" cy="-47.55" fill="rgba(16, 110, 234, 1)"></circle><circle r="5" cx="995.49" cy="175.92" fill="rgba(16, 110, 234, 1)"></circle><circle r="5" cx="996.81" cy="317.63" fill="rgba(16, 110, 234, 1)"></circle><circle r="5" cx="1044.61" cy="435.78" fill="rgba(16, 110, 234, 1)"></circle><circle r="5" cx="1014.77" cy="568.93" fill="rgba(16, 110, 234, 1)"></circle><circle r="5" cx="1022.23" cy="673.06" fill="rgba(16, 110, 234, 1)"></circle><circle r="5" cx="1030.32" cy="809.41" fill="rgba(16, 110, 234, 1)"></circle><path d="M-76.22 664.37L-76.22 664.37" stroke="hsl(23.100000000000023, 91.6%, 75.2%)" stroke-width="1.5"></path><path d="M-76.22 664.37L-86.45 760.17" stroke="hsl(23.100000000000023, 91.6%, 75.2%)" stroke-width="1.5"></path><path d="M-76.22 664.37L43.45 630.2" stroke="hsl(23.100000000000023, 91.6%, 75.2%)" stroke-width="1.5"></path><path d="M-76.22 664.37L79.39 789.73" stroke="hsl(23.100000000000023, 91.6%, 75.2%)" stroke-width="1.5"></path><path d="M-76.22 664.37L150.23 793.04" stroke="hsl(23.100000000000023, 91.6%, 75.2%)" stroke-width="1.5"></path><path d="M-76.22 664.37L188.47 677.74" stroke="hsl(23.100000000000023, 91.6%, 75.2%)" stroke-width="1.5"></path><path d="M43.45 630.2L43.45 630.2" stroke="hsl(23.100000000000023, 91.6%, 75.2%)" stroke-width="1.5"></path><path d="M43.45 630.2L188.47 677.74" stroke="hsl(23.100000000000023, 91.6%, 75.2%)" stroke-width="1.5"></path><path d="M43.45 630.2L79.39 789.73" stroke="hsl(23.100000000000023, 91.6%, 75.2%)" stroke-width="1.5"></path><path d="M43.45 630.2L-86.45 760.17" stroke="hsl(23.100000000000023, 91.6%, 75.2%)" stroke-width="1.5"></path><path d="M43.45 630.2L150.23 793.04" stroke="hsl(23.100000000000023, 91.6%, 75.2%)" stroke-width="1.5"></path><path d="M278.85 671.96L278.85 671.96" stroke="hsl(23.100000000000023, 91.6%, 75.2%)" stroke-width="1.5"></path><path d="M278.85 671.96L188.47 677.74" stroke="hsl(23.100000000000023, 91.6%, 75.2%)" stroke-width="1.5"></path><path d="M278.85 671.96L294.19 761.77" stroke="hsl(23.100000000000023, 91.6%, 75.2%)" stroke-width="1.5"></path><path d="M278.85 671.96L411.63 689.4" stroke="hsl(23.100000000000023, 91.6%, 75.2%)" stroke-width="1.5"></path><path d="M278.85 671.96L410.42 763.93" stroke="hsl(23.100000000000023, 91.6%, 75.2%)" stroke-width="1.5"></path><path d="M294.19 761.77L294.19 761.77" stroke="hsl(23.100000000000023, 91.6%, 75.2%)" stroke-width="1.5"></path><path d="M294.19 761.77L410.42 763.93" stroke="hsl(23.100000000000023, 91.6%, 75.2%)" stroke-width="1.5"></path><path d="M886.9 -83.57L886.9 -83.57" stroke="hsl(23.100000000000023, 91.6%, 75.2%)" stroke-width="1.5"></path><path d="M886.9 -83.57L897.88 55.58" stroke="hsl(23.100000000000023, 91.6%, 75.2%)" stroke-width="1.5"></path><path d="M886.9 -83.57L1026.12 -46.86" stroke="hsl(23.100000000000023, 91.6%, 75.2%)" stroke-width="1.5"></path><path d="M886.9 -83.57L780.81 44.36" stroke="hsl(23.100000000000023, 91.6%, 75.2%)" stroke-width="1.5"></path><path d="M886.9 -83.57L1045.92 71.95" stroke="hsl(23.100000000000023, 91.6%, 75.2%)" stroke-width="1.5"></path><path d="M886.9 -83.57L774.03 167" stroke="hsl(23.100000000000023, 91.6%, 75.2%)" stroke-width="1.5"></path><path d="M886.9 -83.57L991.42 208.08" stroke="hsl(23.100000000000023, 91.6%, 75.2%)" stroke-width="1.5"></path><path d="M916.83 283.2L916.83 283.2" stroke="hsl(23.100000000000023, 91.6%, 75.2%)" stroke-width="1.5"></path><path d="M916.83 283.2L991.42 208.08" stroke="hsl(23.100000000000023, 91.6%, 75.2%)" stroke-width="1.5"></path><path d="M929.75 796.73L929.75 796.73" stroke="hsl(23.100000000000023, 91.6%, 75.2%)" stroke-width="1.5"></path><path d="M929.75 796.73L1042.27 754.69" stroke="hsl(23.100000000000023, 91.6%, 75.2%)" stroke-width="1.5"></path><path d="M929.75 796.73L871.25 683.25" stroke="hsl(23.100000000000023, 91.6%, 75.2%)" stroke-width="1.5"></path><path d="M929.75 796.73L1002.97 683.17" stroke="hsl(23.100000000000023, 91.6%, 75.2%)" stroke-width="1.5"></path><path d="M929.75 796.73L769.07 799.98" stroke="hsl(23.100000000000023, 91.6%, 75.2%)" stroke-width="1.5"></path><path d="M1045.92 71.95L1045.92 71.95" stroke="hsl(23.100000000000023, 91.6%, 75.2%)" stroke-width="1.5"></path><path d="M1045.92 71.95L1026.12 -46.86" stroke="hsl(23.100000000000023, 91.6%, 75.2%)" stroke-width="1.5"></path><path d="M1045.92 71.95L991.42 208.08" stroke="hsl(23.100000000000023, 91.6%, 75.2%)" stroke-width="1.5"></path><path d="M1045.92 71.95L897.88 55.58" stroke="hsl(23.100000000000023, 91.6%, 75.2%)" stroke-width="1.5"></path><path d="M1045.92 71.95L1033.24 318.22" stroke="hsl(23.100000000000023, 91.6%, 75.2%)" stroke-width="1.5"></path><path d="M-86.45 760.17L-86.45 760.17" stroke="hsl(23.100000000000023, 91.6%, 75.2%)" stroke-width="1.5"></path><path d="M-86.45 760.17L79.39 789.73" stroke="hsl(23.100000000000023, 91.6%, 75.2%)" stroke-width="1.5"></path><path d="M-86.45 760.17L150.23 793.04" stroke="hsl(23.100000000000023, 91.6%, 75.2%)" stroke-width="1.5"></path><path d="M79.39 789.73L79.39 789.73" stroke="hsl(23.100000000000023, 91.6%, 75.2%)" stroke-width="1.5"></path><path d="M79.39 789.73L150.23 793.04" stroke="hsl(23.100000000000023, 91.6%, 75.2%)" stroke-width="1.5"></path><path d="M79.39 789.73L188.47 677.74" stroke="hsl(23.100000000000023, 91.6%, 75.2%)" stroke-width="1.5"></path><path d="M188.47 677.74L188.47 677.74" stroke="hsl(23.100000000000023, 91.6%, 75.2%)" stroke-width="1.5"></path><path d="M188.47 677.74L150.23 793.04" stroke="hsl(23.100000000000023, 91.6%, 75.2%)" stroke-width="1.5"></path><path d="M188.47 677.74L294.19 761.77" stroke="hsl(23.100000000000023, 91.6%, 75.2%)" stroke-width="1.5"></path><path d="M150.23 793.04L150.23 793.04" stroke="hsl(23.100000000000023, 91.6%, 75.2%)" stroke-width="1.5"></path><path d="M150.23 793.04L294.19 761.77" stroke="hsl(23.100000000000023, 91.6%, 75.2%)" stroke-width="1.5"></path><path d="M150.23 793.04L278.85 671.96" stroke="hsl(23.100000000000023, 91.6%, 75.2%)" stroke-width="1.5"></path><path d="M411.63 689.4L411.63 689.4" stroke="hsl(23.100000000000023, 91.6%, 75.2%)" stroke-width="1.5"></path><path d="M411.63 689.4L410.42 763.93" stroke="hsl(23.100000000000023, 91.6%, 75.2%)" stroke-width="1.5"></path><path d="M411.63 689.4L294.19 761.77" stroke="hsl(23.100000000000023, 91.6%, 75.2%)" stroke-width="1.5"></path><path d="M411.63 689.4L539.33 630.96" stroke="hsl(23.100000000000023, 91.6%, 75.2%)" stroke-width="1.5"></path><path d="M411.63 689.4L557.79 775.33" stroke="hsl(23.100000000000023, 91.6%, 75.2%)" stroke-width="1.5"></path><path d="M411.63 689.4L526.86 545.11" stroke="hsl(23.100000000000023, 91.6%, 75.2%)" stroke-width="1.5"></path><path d="M410.42 763.93L410.42 763.93" stroke="hsl(23.100000000000023, 91.6%, 75.2%)" stroke-width="1.5"></path><path d="M410.42 763.93L557.79 775.33" stroke="hsl(23.100000000000023, 91.6%, 75.2%)" stroke-width="1.5"></path><path d="M529.51 428.76L529.51 428.76" stroke="hsl(23.100000000000023, 91.6%, 75.2%)" stroke-width="1.5"></path><path d="M529.51 428.76L526.86 545.11" stroke="hsl(23.100000000000023, 91.6%, 75.2%)" stroke-width="1.5"></path><path d="M529.51 428.76L660.48 422.62" stroke="hsl(23.100000000000023, 91.6%, 75.2%)" stroke-width="1.5"></path><path d="M526.86 545.11L526.86 545.11" stroke="hsl(23.100000000000023, 91.6%, 75.2%)" stroke-width="1.5"></path><path d="M526.86 545.11L539.33 630.96" stroke="hsl(23.100000000000023, 91.6%, 75.2%)" stroke-width="1.5"></path><path d="M526.86 545.11L660.48 422.62" stroke="hsl(23.100000000000023, 91.6%, 75.2%)" stroke-width="1.5"></path><path d="M526.86 545.11L676.74 664.44" stroke="hsl(23.100000000000023, 91.6%, 75.2%)" stroke-width="1.5"></path><path d="M539.33 630.96L539.33 630.96" stroke="hsl(23.100000000000023, 91.6%, 75.2%)" stroke-width="1.5"></path><path d="M539.33 630.96L676.74 664.44" stroke="hsl(23.100000000000023, 91.6%, 75.2%)" stroke-width="1.5"></path><path d="M539.33 630.96L557.79 775.33" stroke="hsl(23.100000000000023, 91.6%, 75.2%)" stroke-width="1.5"></path><path d="M539.33 630.96L672.4 751.46" stroke="hsl(23.100000000000023, 91.6%, 75.2%)" stroke-width="1.5"></path><path d="M539.33 630.96L410.42 763.93" stroke="hsl(23.100000000000023, 91.6%, 75.2%)" stroke-width="1.5"></path><path d="M557.79 775.33L557.79 775.33" stroke="hsl(23.100000000000023, 91.6%, 75.2%)" stroke-width="1.5"></path><path d="M557.79 775.33L672.4 751.46" stroke="hsl(23.100000000000023, 91.6%, 75.2%)" stroke-width="1.5"></path><path d="M557.79 775.33L676.74 664.44" stroke="hsl(23.100000000000023, 91.6%, 75.2%)" stroke-width="1.5"></path><path d="M660.48 422.62L660.48 422.62" stroke="hsl(23.100000000000023, 91.6%, 75.2%)" stroke-width="1.5"></path><path d="M660.48 422.62L789.04 447.05" stroke="hsl(23.100000000000023, 91.6%, 75.2%)" stroke-width="1.5"></path><path d="M660.48 422.62L775.4 291.61" stroke="hsl(23.100000000000023, 91.6%, 75.2%)" stroke-width="1.5"></path><path d="M676.74 664.44L676.74 664.44" stroke="hsl(23.100000000000023, 91.6%, 75.2%)" stroke-width="1.5"></path><path d="M676.74 664.44L672.4 751.46" stroke="hsl(23.100000000000023, 91.6%, 75.2%)" stroke-width="1.5"></path><path d="M676.74 664.44L781.11 683.43" stroke="hsl(23.100000000000023, 91.6%, 75.2%)" stroke-width="1.5"></path><path d="M672.4 751.46L672.4 751.46" stroke="hsl(23.100000000000023, 91.6%, 75.2%)" stroke-width="1.5"></path><path d="M672.4 751.46L769.07 799.98" stroke="hsl(23.100000000000023, 91.6%, 75.2%)" stroke-width="1.5"></path><path d="M780.81 44.36L780.81 44.36" stroke="hsl(23.100000000000023, 91.6%, 75.2%)" stroke-width="1.5"></path><path d="M780.81 44.36L897.88 55.58" stroke="hsl(23.100000000000023, 91.6%, 75.2%)" stroke-width="1.5"></path><path d="M780.81 44.36L774.03 167" stroke="hsl(23.100000000000023, 91.6%, 75.2%)" stroke-width="1.5"></path><path d="M774.03 167L774.03 167" stroke="hsl(23.100000000000023, 91.6%, 75.2%)" stroke-width="1.5"></path><path d="M774.03 167L775.4 291.61" stroke="hsl(23.100000000000023, 91.6%, 75.2%)" stroke-width="1.5"></path><path d="M774.03 167L897.88 55.58" stroke="hsl(23.100000000000023, 91.6%, 75.2%)" stroke-width="1.5"></path><path d="M774.03 167L916.83 283.2" stroke="hsl(23.100000000000023, 91.6%, 75.2%)" stroke-width="1.5"></path><path d="M774.03 167L991.42 208.08" stroke="hsl(23.100000000000023, 91.6%, 75.2%)" stroke-width="1.5"></path><path d="M775.4 291.61L775.4 291.61" stroke="hsl(23.100000000000023, 91.6%, 75.2%)" stroke-width="1.5"></path><path d="M775.4 291.61L916.83 283.2" stroke="hsl(23.100000000000023, 91.6%, 75.2%)" stroke-width="1.5"></path><path d="M789.04 447.05L789.04 447.05" stroke="hsl(23.100000000000023, 91.6%, 75.2%)" stroke-width="1.5"></path><path d="M789.04 447.05L809.84 547.04" stroke="hsl(23.100000000000023, 91.6%, 75.2%)" stroke-width="1.5"></path><path d="M789.04 447.05L896.3 400.64" stroke="hsl(23.100000000000023, 91.6%, 75.2%)" stroke-width="1.5"></path><path d="M809.84 547.04L809.84 547.04" stroke="hsl(23.100000000000023, 91.6%, 75.2%)" stroke-width="1.5"></path><path d="M809.84 547.04L899.91 525.72" stroke="hsl(23.100000000000023, 91.6%, 75.2%)" stroke-width="1.5"></path><path d="M809.84 547.04L781.11 683.43" stroke="hsl(23.100000000000023, 91.6%, 75.2%)" stroke-width="1.5"></path><path d="M809.84 547.04L871.25 683.25" stroke="hsl(23.100000000000023, 91.6%, 75.2%)" stroke-width="1.5"></path><path d="M809.84 547.04L896.3 400.64" stroke="hsl(23.100000000000023, 91.6%, 75.2%)" stroke-width="1.5"></path><path d="M809.84 547.04L676.74 664.44" stroke="hsl(23.100000000000023, 91.6%, 75.2%)" stroke-width="1.5"></path><path d="M781.11 683.43L781.11 683.43" stroke="hsl(23.100000000000023, 91.6%, 75.2%)" stroke-width="1.5"></path><path d="M781.11 683.43L871.25 683.25" stroke="hsl(23.100000000000023, 91.6%, 75.2%)" stroke-width="1.5"></path><path d="M781.11 683.43L769.07 799.98" stroke="hsl(23.100000000000023, 91.6%, 75.2%)" stroke-width="1.5"></path><path d="M781.11 683.43L672.4 751.46" stroke="hsl(23.100000000000023, 91.6%, 75.2%)" stroke-width="1.5"></path><path d="M769.07 799.98L769.07 799.98" stroke="hsl(23.100000000000023, 91.6%, 75.2%)" stroke-width="1.5"></path><path d="M769.07 799.98L871.25 683.25" stroke="hsl(23.100000000000023, 91.6%, 75.2%)" stroke-width="1.5"></path><path d="M897.88 55.58L897.88 55.58" stroke="hsl(23.100000000000023, 91.6%, 75.2%)" stroke-width="1.5"></path><path d="M897.88 55.58L1026.12 -46.86" stroke="hsl(23.100000000000023, 91.6%, 75.2%)" stroke-width="1.5"></path><path d="M897.88 55.58L991.42 208.08" stroke="hsl(23.100000000000023, 91.6%, 75.2%)" stroke-width="1.5"></path><path d="M896.3 400.64L896.3 400.64" stroke="hsl(23.100000000000023, 91.6%, 75.2%)" stroke-width="1.5"></path><path d="M896.3 400.64L916.83 283.2" stroke="hsl(23.100000000000023, 91.6%, 75.2%)" stroke-width="1.5"></path><path d="M896.3 400.64L1015.9 436.09" stroke="hsl(23.100000000000023, 91.6%, 75.2%)" stroke-width="1.5"></path><path d="M899.91 525.72L899.91 525.72" stroke="hsl(23.100000000000023, 91.6%, 75.2%)" stroke-width="1.5"></path><path d="M899.91 525.72L896.3 400.64" stroke="hsl(23.100000000000023, 91.6%, 75.2%)" stroke-width="1.5"></path><path d="M899.91 525.72L1032.05 537.94" stroke="hsl(23.100000000000023, 91.6%, 75.2%)" stroke-width="1.5"></path><path d="M899.91 525.72L789.04 447.05" stroke="hsl(23.100000000000023, 91.6%, 75.2%)" stroke-width="1.5"></path><path d="M871.25 683.25L871.25 683.25" stroke="hsl(23.100000000000023, 91.6%, 75.2%)" stroke-width="1.5"></path><path d="M1026.12 -46.86L1026.12 -46.86" stroke="hsl(23.100000000000023, 91.6%, 75.2%)" stroke-width="1.5"></path><path d="M1026.12 -46.86L991.42 208.08" stroke="hsl(23.100000000000023, 91.6%, 75.2%)" stroke-width="1.5"></path><path d="M991.42 208.08L991.42 208.08" stroke="hsl(23.100000000000023, 91.6%, 75.2%)" stroke-width="1.5"></path><path d="M991.42 208.08L1033.24 318.22" stroke="hsl(23.100000000000023, 91.6%, 75.2%)" stroke-width="1.5"></path><path d="M991.42 208.08L896.3 400.64" stroke="hsl(23.100000000000023, 91.6%, 75.2%)" stroke-width="1.5"></path><path d="M1033.24 318.22L1033.24 318.22" stroke="hsl(23.100000000000023, 91.6%, 75.2%)" stroke-width="1.5"></path><path d="M1033.24 318.22L1015.9 436.09" stroke="hsl(23.100000000000023, 91.6%, 75.2%)" stroke-width="1.5"></path><path d="M1033.24 318.22L916.83 283.2" stroke="hsl(23.100000000000023, 91.6%, 75.2%)" stroke-width="1.5"></path><path d="M1033.24 318.22L896.3 400.64" stroke="hsl(23.100000000000023, 91.6%, 75.2%)" stroke-width="1.5"></path><path d="M1015.9 436.09L1015.9 436.09" stroke="hsl(23.100000000000023, 91.6%, 75.2%)" stroke-width="1.5"></path><path d="M1015.9 436.09L1032.05 537.94" stroke="hsl(23.100000000000023, 91.6%, 75.2%)" stroke-width="1.5"></path><path d="M1015.9 436.09L899.91 525.72" stroke="hsl(23.100000000000023, 91.6%, 75.2%)" stroke-width="1.5"></path><path d="M1015.9 436.09L916.83 283.2" stroke="hsl(23.100000000000023, 91.6%, 75.2%)" stroke-width="1.5"></path><path d="M1032.05 537.94L1032.05 537.94" stroke="hsl(23.100000000000023, 91.6%, 75.2%)" stroke-width="1.5"></path><path d="M1032.05 537.94L1002.97 683.17" stroke="hsl(23.100000000000023, 91.6%, 75.2%)" stroke-width="1.5"></path><path d="M1032.05 537.94L896.3 400.64" stroke="hsl(23.100000000000023, 91.6%, 75.2%)" stroke-width="1.5"></path><path d="M1032.05 537.94L871.25 683.25" stroke="hsl(23.100000000000023, 91.6%, 75.2%)" stroke-width="1.5"></path><path d="M1032.05 537.94L1042.27 754.69" stroke="hsl(23.100000000000023, 91.6%, 75.2%)" stroke-width="1.5"></path><path d="M1002.97 683.17L1002.97 683.17" stroke="hsl(23.100000000000023, 91.6%, 75.2%)" stroke-width="1.5"></path><path d="M1002.97 683.17L1042.27 754.69" stroke="hsl(23.100000000000023, 91.6%, 75.2%)" stroke-width="1.5"></path><path d="M1002.97 683.17L871.25 683.25" stroke="hsl(23.100000000000023, 91.6%, 75.2%)" stroke-width="1.5"></path><path d="M1002.97 683.17L899.91 525.72" stroke="hsl(23.100000000000023, 91.6%, 75.2%)" stroke-width="1.5"></path><path d="M1042.27 754.69L1042.27 754.69" stroke="hsl(23.100000000000023, 91.6%, 75.2%)" stroke-width="1.5"></path><path d="M1042.27 754.69L871.25 683.25" stroke="hsl(23.100000000000023, 91.6%, 75.2%)" stroke-width="1.5"></path><circle r="25" cx="-76.22" cy="664.37" fill="url(#SvgjsRadialGradient1005)"></circle><circle r="25" cx="43.45" cy="630.2" fill="url(#SvgjsRadialGradient1005)"></circle><circle r="25" cx="278.85" cy="671.96" fill="url(#SvgjsRadialGradient1005)"></circle><circle r="25" cx="294.19" cy="761.77" fill="url(#SvgjsRadialGradient1005)"></circle><circle r="25" cx="886.9" cy="-83.57" fill="url(#SvgjsRadialGradient1005)"></circle><circle r="25" cx="916.83" cy="283.2" fill="url(#SvgjsRadialGradient1005)"></circle><circle r="25" cx="929.75" cy="796.73" fill="url(#SvgjsRadialGradient1005)"></circle><circle r="25" cx="1045.92" cy="71.95" fill="url(#SvgjsRadialGradient1005)"></circle><circle r="5" cx="-86.45" cy="760.17" fill="#fbbe98"></circle><circle r="5" cx="79.39" cy="789.73" fill="#fbbe98"></circle><circle r="5" cx="188.47" cy="677.74" fill="#fbbe98"></circle><circle r="5" cx="150.23" cy="793.04" fill="#fbbe98"></circle><circle r="5" cx="411.63" cy="689.4" fill="#fbbe98"></circle><circle r="5" cx="410.42" cy="763.93" fill="#fbbe98"></circle><circle r="5" cx="529.51" cy="428.76" fill="#fbbe98"></circle><circle r="5" cx="526.86" cy="545.11" fill="#fbbe98"></circle><circle r="5" cx="539.33" cy="630.96" fill="#fbbe98"></circle><circle r="5" cx="557.79" cy="775.33" fill="#fbbe98"></circle><circle r="5" cx="660.48" cy="422.62" fill="#fbbe98"></circle><circle r="5" cx="676.74" cy="664.44" fill="#fbbe98"></circle><circle r="5" cx="672.4" cy="751.46" fill="#fbbe98"></circle><circle r="5" cx="780.81" cy="44.36" fill="#fbbe98"></circle><circle r="5" cx="774.03" cy="167" fill="#fbbe98"></circle><circle r="5" cx="775.4" cy="291.61" fill="#fbbe98"></circle><circle r="5" cx="789.04" cy="447.05" fill="#fbbe98"></circle><circle r="5" cx="809.84" cy="547.04" fill="#fbbe98"></circle><circle r="5" cx="781.11" cy="683.43" fill="#fbbe98"></circle><circle r="5" cx="769.07" cy="799.98" fill="#fbbe98"></circle><circle r="5" cx="897.88" cy="55.58" fill="#fbbe98"></circle><circle r="5" cx="896.3" cy="400.64" fill="#fbbe98"></circle><circle r="5" cx="899.91" cy="525.72" fill="#fbbe98"></circle><circle r="5" cx="871.25" cy="683.25" fill="#fbbe98"></circle><circle r="5" cx="1026.12" cy="-46.86" fill="#fbbe98"></circle><circle r="5" cx="991.42" cy="208.08" fill="#fbbe98"></circle><circle r="5" cx="1033.24" cy="318.22" fill="#fbbe98"></circle><circle r="5" cx="1015.9" cy="436.09" fill="#fbbe98"></circle><circle r="5" cx="1032.05" cy="537.94" fill="#fbbe98"></circle><circle r="5" cx="1002.97" cy="683.17" fill="#fbbe98"></circle><circle r="5" cx="1042.27" cy="754.69" fill="#fbbe98"></circle></g><defs><mask id="SvgjsMask1004"><rect width="960" height="720" fill="#ffffff"></rect></mask><radialGradient id="SvgjsRadialGradient1005"><stop stop-color="#ffffff" offset="0.1"></stop><stop stop-color="rgba(246, 125, 49, 1)" offset="0.2"></stop><stop stop-color="rgba(246, 125, 49, 0)" offset="1"></stop></radialGradient></defs></svg>